<?xml version="1.0" encoding="utf-8" ?>
<svg xmlns="http://www.w3.org/2000/svg" xmlns:xlink="http://www.w3.org/1999/xlink" width="1154" height="288">
	<path fill="#6CF5F3" transform="matrix(3.84667 0 0 3.84 0 0.000244141)" d="M0 -0L13.8399 0L15.4441 0L23.1094 0L38.4795 0L68.0997 0L82.4135 0L104.624 0L114.621 0L126.105 0L133.91 0L146.542 0L230.874 0L239.708 0L245.345 0L255.4 0L258.542 0L278.148 0L290.158 0L299.312 0L299.742 0C300.292 1.5309 300.142 4.82077 299.922 6.46867L299.929 6.74267L299.918 7.78795C300.06 10.0792 300.169 12.7232 299.937 15.0091C300.016 15.9723 300.217 16.9441 299.563 17.7492C300.211 18.6738 300.184 20.6349 299.984 21.7317C299.935 22.0023 299.807 22.271 299.665 22.5054C300.314 23.8842 300.251 28.292 299.833 29.7908L299.953 30.2816L299.936 30.535L299.943 39.0105L299.946 39.2173L300 54.3707C299.998 56.7788 300.24 59.4211 299.919 61.7908C300.024 63.6403 300.472 73.5676 299.781 74.6848L299.563 75L269.347 75L254.453 75L249.195 75L246.437 75L242.949 75L240.921 75L233.059 75L227.131 75L156.224 75L145.135 75L131.941 75L119.231 75L90.5638 75L87.2458 75L86.8171 75L82.4954 75L81.1498 75L79.5829 75L39.9322 75L36.018 75L29.7669 75L24.6187 75L20.8347 75L0.546507 75L0 75L0 66.5257L0 34.8694L0 34.3217L0 30.831L0 24.9133L0 21.8644L0 11.6435L0 5.33161L0 3.53467L0 -0Z"/>
	<path fill="#81FCED" transform="matrix(3.84667 0 0 3.84 0 0.000244141)" d="M249.015 56.374L249.967 56.375C250.27 56.6607 250.573 56.9626 250.819 57.2989C251.382 58.0685 251.394 58.9517 251.249 59.8521L250.489 60.1251C249.708 60.0507 249.656 59.9631 249.092 59.41C248.599 58.4204 248.854 57.4193 249.015 56.374Z"/>
	<path fill="#D6F7FC" transform="matrix(3.84667 0 0 3.84 0 0.000244141)" d="M242.741 68.5309L242.788 68.4895L243.048 68.2156C243.954 67.1871 243.769 62.8473 245.125 62.6502C245.939 64.0087 245.407 68.2102 245.012 69.7949C244.741 70.8836 244.111 71.8308 243.725 72.875C243.463 73.5866 243.496 74.4312 242.949 75L240.921 75C241.141 74.8105 241.341 74.5885 241.457 74.3197C242.034 72.9822 243.275 69.873 242.741 68.5309Z"/>
	<path fill="#D6F7FC" transform="matrix(3.84667 0 0 3.84 0 0.000244141)" d="M227.131 75L227.173 74.9515C228.375 73.5516 227.675 70.8219 228.75 69.6816C229.638 69.7513 230.31 69.9241 231.125 70.2834C231.521 70.8381 231.763 71.4876 232.162 72.0269C232.716 72.7742 233.228 72.7981 233.421 73.875C233.316 74.2467 233.231 74.6534 233.059 75L227.131 75Z"/>
	<path fill="#38B8AE" transform="matrix(3.84667 0 0 3.84 0 0.000244141)" d="M245.345 0L255.4 0L255.28 0.647738L254.709 0.995107C252.823 2.19698 250.718 2.76112 248.594 3.41233C247.724 3.67914 246.711 4.09444 245.792 3.89845L245.396 3.791C245.49 3.57813 245.565 3.35492 245.604 3.125C245.78 2.08241 246 0.910268 245.345 0Z"/>
	<path fill="#81FCED" transform="matrix(3.84667 0 0 3.84 0 0.000244141)" d="M248.548 65.2494C248.955 65.7819 248.862 66.3617 249.25 66.75C249.434 67.1716 249.305 67.6826 249.25 68.125C249.764 67.5564 250.168 67.5377 250.5 66.75L250.189 66.25C250.475 65.9894 250.607 65.0274 250.75 64.625L250.453 64.6605L250.127 64.375L250.625 63.75L250.607 63.5577C250.606 63.0679 251.37 61.255 251.688 60.9375C251.68 60.5184 251.865 59.4931 251.673 59.1867C251.484 58.8851 251.518 58.236 251.5 57.875C251.786 57.7642 252.063 57.6629 252.362 57.5931L252.307 58.0581L252.5 58.25C252.584 57.9627 252.811 57.8566 253.052 57.7074C253.415 58.4463 253.601 58.615 253.375 59.4451C252.735 59.9368 252.407 60.3415 252.016 61.0409C252.016 61.7452 251.668 62.0518 251.497 62.6803C251.181 63.839 251.133 65.1724 250.635 66.2632C251.136 67.7294 250.168 70.8449 249.907 72.4368C249.815 73.0008 249.802 74.0346 249.562 74.5066C249.47 74.6885 249.333 74.8516 249.195 75L246.437 75L247.123 74.375C247.071 71.1866 248.721 68.3814 248.548 65.2494Z"/>
	<path fill="#61DFD2" transform="matrix(3.84667 0 0 3.84 0 0.000244141)" d="M230.874 0L239.708 0L245.345 0C246 0.910268 245.78 2.08241 245.604 3.125C245.565 3.35492 245.49 3.57813 245.396 3.791C243.904 3.25801 242.778 2.34705 241.204 1.98397C240.401 2.05484 239.552 1.82532 238.742 1.78296L233.948 1.70174C233.634 1.69495 232.355 1.67589 232.125 1.48803C231.731 1.16668 231.267 0.410781 230.874 0Z"/>
	<path fill="#96EBFC" transform="matrix(3.84667 0 0 3.84 0 0.000244141)" d="M145.135 75C145.678 74.2431 146.258 72.6163 147.13 72.4693C147.986 72.325 148.995 72.0276 149.765 71.625C150.569 71.2047 150.648 70.7551 151.624 70.6262L152.125 71.5L152.377 71.375L152.475 70.625C152.629 70.5263 153.227 70.2095 153.265 70.07C153.551 69.0422 154.323 68.0493 155.001 67.2512L155.625 67.1275L155.873 67.5C155.685 68.3591 155.013 69.2916 155.123 70.125L155.081 70.1807C154.763 70.6142 154.289 71.4387 154.136 71.9471C154.079 72.1373 154.167 72.8167 154.104 72.8995C153.871 73.2031 153.753 73.5209 153.623 73.875L153.749 74.5012C154.107 74.5012 154.326 74.306 154.627 74.125L154.642 74.068C154.973 72.8365 156.66 69.456 157.625 68.8775L158.123 69.5C157.807 70.2147 157.034 72.2047 157.123 72.875C156.757 73.4239 157.054 73.6352 156.873 74.125C156.786 74.3587 156.383 74.7854 156.224 75L145.135 75Z"/>
	<path fill="#81FCED" transform="matrix(3.84667 0 0 3.84 0 0.000244141)" d="M255.4 0L258.542 0L278.148 0L290.158 0L299.312 0L299.742 0C300.292 1.5309 300.142 4.82077 299.922 6.46867L299.929 6.74267L299.918 7.78795C300.06 10.0792 300.169 12.7232 299.937 15.0091C300.016 15.9723 300.217 16.9441 299.563 17.7492C300.211 18.6738 300.184 20.6349 299.984 21.7317C299.935 22.0023 299.807 22.271 299.665 22.5054C300.314 23.8842 300.251 28.292 299.833 29.7908L299.953 30.2816L299.936 30.535L299.943 39.0105L299.946 39.2173L300 54.3707C299.998 56.7788 300.24 59.4211 299.919 61.7908C300.024 63.6403 300.472 73.5676 299.781 74.6848L299.563 75L269.347 75L254.453 75L249.195 75C249.333 74.8516 249.47 74.6885 249.562 74.5066C249.802 74.0346 249.815 73.0008 249.907 72.4368C250.168 70.8449 251.136 67.7294 250.635 66.2632C251.133 65.1724 251.181 63.839 251.497 62.6803C251.668 62.0518 252.016 61.7452 252.016 61.0409C252.407 60.3415 252.735 59.9368 253.375 59.4451C253.601 58.615 253.415 58.4463 253.052 57.7074C253.139 57.5322 253.46 57.0397 253.467 56.875C253.479 56.5655 253.167 55.8726 253.098 55.5276C252.885 54.4501 252.783 53.2389 252.884 52.1427C252.995 50.9371 253.924 49.4687 253.879 48.3699C253.834 47.2657 253.339 46.0378 253.219 44.8964L252.588 35.375L253.213 34.7623C252.969 33.2107 251.01 32.8605 250.803 30.9262C250.656 29.546 251.226 27.4649 251.795 26.2134C252.271 25.1635 253.053 24.1747 252.948 23.0201L252.968 22.9778C254.042 20.5796 253.462 17.8682 252.581 15.528C252.949 14.4557 253.509 13.5458 253.778 12.4284C254.302 10.2552 253.808 7.36598 255.343 5.53695L255.466 5.20896C255.665 3.85665 255.214 2.2415 254.709 0.995107L255.28 0.647738L255.4 0Z"/>
	<path fill="#96FAEB" transform="matrix(3.84667 0 0 3.84 0 0.000244141)" d="M296.705 36.4763C296.855 36.5579 297.392 36.7879 297.455 36.9121C297.891 37.7707 298.829 38.6128 299.728 38.938L299.943 39.0105L299.946 39.2173L300 54.3707C299.998 56.7788 300.24 59.4211 299.919 61.7908L299.675 61.7692C299.297 61.4417 299.044 60.8222 298.781 60.3938C296.752 57.092 297.412 53.2129 297.377 49.5L297.155 44.2038C297.146 42.5619 297.242 40.3596 296.689 38.8119C296.502 38.2863 296.461 37.9099 296.627 37.375L297.25 37.125L296.705 36.4763Z"/>
	<path fill="#6CF5F3" transform="matrix(3.84667 0 0 3.84 0 0.000244141)" d="M257.419 14.9681C257.815 15.1436 258.59 15.3639 258.9 15.625C259.392 16.0396 259.084 16.2633 259.875 16.2776L260.75 15.7317C261.576 16.0898 261.816 16.7855 262.429 17.4129C262.842 17.1809 263.238 16.9679 263.688 16.8125C264.561 18.6121 265.141 21.3906 266.865 22.5861C266.613 22.6208 266.404 22.7105 266.194 22.5512C265.577 22.0854 265.261 21.4029 264.875 20.75C264.42 20.8698 264.282 20.9005 263.807 20.7842C263.303 21.7605 263.183 24.2722 263.515 25.3054C263.712 25.9192 264.202 27.1754 264.75 27.5C265.595 27.3627 266.534 26.4398 267.375 27C267.433 27.0386 267.468 27.0911 267.5 27.1513C266.308 27.2008 265.738 27.6269 264.855 28.3914L264.625 32.3945C265.614 32.4305 266.644 32.4308 267.625 32.5607C269.044 32.7486 269.82 33.6928 271.144 32.4731L271.25 32.3725C271.924 32.4775 273.07 33.1905 273.473 33.7409C273.682 34.0263 273.626 34.2916 273.625 34.6275C273.421 34.7892 273.272 34.8811 273.014 34.9316C272.675 34.9982 272.248 35.2089 272.054 35.5082L271.872 35.8639L271.834 35.8782C271.415 36.0427 271.056 36.3261 270.877 36.75C270.597 37.417 270.352 38.2544 270.266 38.9722C270.213 39.4076 270.305 40.0503 270.082 40.4184L269.938 39.6238C269.232 39.7584 268.433 40.1937 268.008 40.7954L266.567 43.3922L265.692 43.5017L265.562 43.0625L265.608 43.0417C266.276 42.733 267.04 41.622 267.275 40.9338L267.375 40.5L267.447 40.4826C268.048 40.3207 268.429 39.5892 268.911 39.2203C269.156 39.0332 269.693 38.9528 270 38.875C270.015 38.3787 269.979 37.8684 270.224 37.4238C270.398 37.1072 270.552 36.6719 270.438 36.3125C270.238 35.687 269.767 35.3357 269.438 34.8125C269.238 34.4958 269.294 34.0487 269.125 33.75C269.002 33.533 268.563 33.1876 268.375 33C267.852 32.9719 267.262 32.9892 266.767 32.8139C266.364 32.6715 266.025 32.8767 265.628 32.9349C264.031 33.1692 262.234 34.0843 260.708 34.0004C261.271 32.6759 260.648 30.8369 260.719 29.375C261.617 28.5369 262.539 28.8044 263.501 28.0012C263.75 26.9785 263.131 26.6172 263.026 25.6739C262.922 24.7423 263.115 23.7071 262.933 22.7972C262.805 22.1565 262.421 21.7319 262.38 21.0474L262.377 21C261.8 20.7869 260.945 21.1745 260.327 21.2098C259.429 21.2613 258.4 21.1027 257.478 21.0959C257.501 19.0842 258.212 16.8883 257.419 14.9681Z"/>
	<path fill="#61DFD2" transform="matrix(3.84667 0 0 3.84 0 0.000244141)" d="M255.343 5.53695L256.892 11.9783C257.082 12.7482 257.637 14.1913 257.419 14.9681C258.212 16.8883 257.501 19.0842 257.478 21.0959C258.4 21.1027 259.429 21.2613 260.327 21.2098C260.945 21.1745 261.8 20.7869 262.377 21L262.38 21.0474C262.421 21.7319 262.805 22.1565 262.933 22.7972C263.115 23.7071 262.922 24.7423 263.026 25.6739C263.131 26.6172 263.75 26.9785 263.501 28.0012C262.539 28.8044 261.617 28.5369 260.719 29.375C260.648 30.8369 261.271 32.6759 260.708 34.0004L260.744 34.687C259.612 35.8116 258.807 36.901 258.312 38.4375C258.622 38.8967 259.131 39.1934 259.375 39.6275C257.841 39.2222 257.21 38.0371 255.951 37.4583C256.08 37.0033 255.972 36.3187 255.75 35.9078L255.251 36.0012L255.12 36.2289C254.607 37.2346 255.246 39.8522 255.185 41.0323C255.133 42.0096 254.845 43.0466 254.622 44C253.991 41.7816 253.924 39.7573 254.026 37.4589C254.059 36.7196 254.43 36.3156 254.213 35.5387L254.198 35.4843C254.01 35.0835 253.598 34.9693 253.213 34.7623C252.969 33.2107 251.01 32.8605 250.803 30.9262C250.656 29.546 251.226 27.4649 251.795 26.2134C252.271 25.1635 253.053 24.1747 252.948 23.0201L252.968 22.9778C254.042 20.5796 253.462 17.8682 252.581 15.528C252.949 14.4557 253.509 13.5458 253.778 12.4284C254.302 10.2552 253.808 7.36598 255.343 5.53695Z"/>
	<path fill="#B4F2FA" transform="matrix(3.84667 0 0 3.84 0 0.000244141)" d="M253.213 34.7623C253.598 34.9693 254.01 35.0835 254.198 35.4843L254.213 35.5387C254.43 36.3156 254.059 36.7196 254.026 37.4589C253.924 39.7573 253.991 41.7816 254.622 44C254.845 43.0466 255.133 42.0096 255.185 41.0323C255.246 39.8522 254.607 37.2346 255.12 36.2289L255.251 36.0012L255.75 35.9078C255.972 36.3187 256.08 37.0033 255.951 37.4583C257.179 39.5945 259.187 43.2478 258.924 45.7739L260.698 46.5602C261.352 46.6221 262.112 46.7194 262.76 46.6048C263.429 46.4866 264.108 46.0392 264.749 46.2512L265.073 46.75L264.875 47.3775C265.426 48.4341 266.074 49.4088 266.796 50.3569C267.198 50.8858 267.746 51.3621 268.013 51.9805C269.594 55.6339 269.342 60.1927 269.92 64.0566C270.076 65.0968 270.633 66.1328 270.637 67.1694C270.641 68.3509 270.23 69.4871 269.88 70.6012C269.575 71.5734 269.453 72.6393 268.974 73.5412L268.75 73.9931L268.41 73.9856C267.697 73.9322 266.61 72.8305 265.961 72.435C265.399 72.0923 261.257 70.6936 260.602 70.8267C260.15 70.9186 259.545 71.3374 259.084 71.5078C258.312 71.793 257.432 71.9282 256.625 72.0797C255.649 72.9823 255.047 73.8114 254.453 75L249.195 75C249.333 74.8516 249.47 74.6885 249.562 74.5066C249.802 74.0346 249.815 73.0008 249.907 72.4368C250.168 70.8449 251.136 67.7294 250.635 66.2632C251.133 65.1724 251.181 63.839 251.497 62.6803C251.668 62.0518 252.016 61.7452 252.016 61.0409C252.407 60.3415 252.735 59.9368 253.375 59.4451C253.601 58.615 253.415 58.4463 253.052 57.7074C253.139 57.5322 253.46 57.0397 253.467 56.875C253.479 56.5655 253.167 55.8726 253.098 55.5276C252.885 54.4501 252.783 53.2389 252.884 52.1427C252.995 50.9371 253.924 49.4687 253.879 48.3699C253.834 47.2657 253.339 46.0378 253.219 44.8964L252.588 35.375L253.213 34.7623Z"/>
	<path fill="#96FAEB" transform="matrix(3.84667 0 0 3.84 0 0.000244141)" d="M255.4 0L258.542 0L278.148 0C278.04 1.38894 276.598 2.15616 276.564 3.375C276.521 4.9201 277.885 6.49999 277.458 8.04471C277.255 8.77849 276.708 9.26611 276.457 9.96179C277.603 10.6013 278.835 12.3057 279.44 13.4673L279.442 14.021C280.445 14.6442 280.854 16.1052 281.111 17.1949C281.451 18.6322 281.813 21.252 280.984 22.5646L280.886 22.7094C281.888 24.7483 283.8 26.056 284.611 28.14C284.836 28.7169 283.611 32.4887 283.301 33.3664C283.182 33.7009 282.913 33.9931 282.666 34.2417C282.482 35.1881 281.423 36.6675 280.629 37.2135C280.493 37.3076 280.351 37.4012 280.202 37.4749C280.082 38.2571 279.669 38.6852 279.125 39.2035C277.796 38.7857 278.488 36.7906 278.016 35.8254C277.76 35.3001 276.954 34.5907 276.503 34.2141C275.981 33.7775 274.939 33.0804 274.667 32.4583C274.469 32.0052 274.503 31.5993 274.194 31.1766C272.929 29.4475 271.455 27.8178 269.857 26.3951C271.424 24.3519 273.012 22.1932 274.361 20.0031C274.767 19.3452 275.302 18.6514 275.247 17.8449L275.242 17.7902L275.572 17.22C275.279 16.8387 274.802 16.4527 274.379 16.215C274.061 16.0358 273.658 16.0489 273.32 16.1508C272.607 16.3659 271.995 17.3181 271.463 17.8506C270.785 18.5297 269.97 19.1192 269.212 19.7079C268.257 18.943 267.08 18.0724 266.037 17.4408C265.412 17.0619 265.013 17.1106 264.425 16.528C264.597 15.2583 265.099 14.2086 265.463 13C265.079 12.0124 263.273 10.9491 262.477 10.0418C261.988 9.48451 261.73 8.65666 261.236 8.17765C260.419 7.38524 259.415 6.67336 258.5 5.99497C257.596 5.79295 257.001 6.31701 256.125 6.45934L255.466 5.20896C255.665 3.85665 255.214 2.2415 254.709 0.995107L255.28 0.647738L255.4 0Z"/>
	<path fill="#81FCED" transform="matrix(3.84667 0 0 3.84 0 0.000244141)" d="M258.542 0L278.148 0C278.04 1.38894 276.598 2.15616 276.564 3.375C276.521 4.9201 277.885 6.49999 277.458 8.04471C277.255 8.77849 276.708 9.26611 276.457 9.96179L276.336 9.625C272.235 6.87288 268.882 6.84045 264.108 7.63312C262.069 6.14619 260.729 4.2637 259.062 2.40729C259.021 2.23965 258.979 2.09623 259.032 1.92575C259.259 1.18976 258.846 0.649485 258.542 0Z"/>
	<path fill="#6CF5F3" transform="matrix(3.84667 0 0 3.84 0 0.000244141)" d="M278.148 0L290.158 0L299.312 0L299.742 0C300.292 1.5309 300.142 4.82077 299.922 6.46867L299.929 6.74267L299.918 7.78795C300.06 10.0792 300.169 12.7232 299.937 15.0091C300.016 15.9723 300.217 16.9441 299.563 17.7492C300.211 18.6738 300.184 20.6349 299.984 21.7317C299.935 22.0023 299.807 22.271 299.665 22.5054C300.314 23.8842 300.251 28.292 299.833 29.7908L299.953 30.2816L299.936 30.535L299.943 39.0105L299.728 38.938C298.829 38.6128 297.891 37.7707 297.455 36.9121C297.392 36.7879 296.855 36.5579 296.705 36.4763C296.734 36.0079 296.421 35.6565 296.166 35.2913L295.938 35.1238C295.707 34.3331 295.124 33.9139 294.778 33.2215L294.75 33.1641C294.278 32.8656 293.794 32.626 293.235 32.5508C290.213 32.1446 285.763 32.6708 283.308 34.5513L282.666 34.2417C282.913 33.9931 283.182 33.7009 283.301 33.3664C283.611 32.4887 284.836 28.7169 284.611 28.14C283.8 26.056 281.888 24.7483 280.886 22.7094L280.984 22.5646C281.813 21.252 281.451 18.6322 281.111 17.1949C280.854 16.1052 280.445 14.6442 279.442 14.021L279.44 13.4673C278.835 12.3057 277.603 10.6013 276.457 9.96179C276.708 9.26611 277.255 8.77849 277.458 8.04471C277.885 6.49999 276.521 4.9201 276.564 3.375C276.598 2.15616 278.04 1.38894 278.148 0Z"/>
	<path fill="#96FAEB" transform="matrix(3.84667 0 0 3.84 0 0.000244141)" d="M299.936 30.535L299.943 39.0105L299.728 38.938C299.398 38.2064 299.682 37.3886 299.702 36.6147C299.754 34.5824 299.709 32.5589 299.936 30.535Z"/>
	<path fill="#96FAEB" transform="matrix(3.84667 0 0 3.84 0 0.000244141)" d="M293.736 32.2559C292.661 31.9954 290.744 32.3194 289.875 31.7264C289.704 29.9892 287.913 28.6014 287.161 26.9973C286.49 25.5655 286.583 24.372 286.414 22.875C286.324 22.0752 286.049 21.3907 286.047 20.5625L286.25 21.125L287.75 21.125L287.5 20.375C287.937 20.5582 288.058 21.2978 288.25 21.7499C288.832 21.7682 289.206 22.1659 289.625 22.5253C289.654 23.6753 288.952 24.2085 288.843 25.375C288.949 25.6277 289.103 26.172 289.261 26.375C290.068 27.4056 293.376 27.9755 294.721 28.5512C294.871 28.8107 295.019 29.0866 295.069 29.3847L295.163 30.2853L295.108 31.875C294.714 32.2288 294.238 32.218 293.736 32.2559Z"/>
	<path fill="#96FAEB" transform="matrix(3.84667 0 0 3.84 0 0.000244141)" d="M295.407 30.5223C295.876 29.666 295.604 28.8179 295.596 27.8593C295.581 26.1782 295.623 24.4102 296.375 22.8775L296.626 22.9282C297.358 23.0089 298.663 22.3424 299.243 21.9051C299.546 21.6761 299.44 21.0463 299.489 20.6518C299.567 20.021 299.563 18.8386 299.153 18.3434C298.765 17.874 298.122 18.009 297.635 17.7114C296.841 17.2264 295.997 17.0013 295.217 16.5579C294.016 15.8751 292.99 14.9779 291.727 14.3278C291.422 14.1709 290.863 13.4277 290.627 13.375C290.441 13.3334 290.071 13.5096 289.832 13.4821C288.809 13.3644 288.941 12.2749 288.5 11.6641C288.408 11.5363 288.041 11.4673 287.96 11.3394C287.92 11.2763 288.027 10.9668 288 10.875C287.921 10.6097 287.394 10.0733 287.207 9.83509C287.202 9.45599 286.527 7.62557 286.285 7.40408C285.902 7.05482 285.423 6.96149 285.01 6.50714C284.212 5.63015 283.657 4.78077 283.098 3.74025C284.993 4.75114 285.762 5.28727 286.479 7.375L287 7.46853C287.822 9.54076 289.042 12.1808 291.225 13.1338C291.428 13.2222 291.577 13.2553 291.707 13.4517C294.21 14.8835 296.7 17.0486 299.563 17.7492C300.211 18.6738 300.184 20.6349 299.984 21.7317C299.935 22.0023 299.807 22.271 299.665 22.5054C300.314 23.8842 300.251 28.292 299.833 29.7908L299.953 30.2816L299.518 30.3103C298.337 30.446 297.503 31.9304 296.375 32.1383C296.05 32.1981 295.891 32.047 295.614 31.8968L295.407 30.5223Z"/>
	<path fill="#96FAEB" transform="matrix(3.84667 0 0 3.84 0 0.000244141)" d="M290.158 0L299.312 0L299.742 0C300.292 1.5309 300.142 4.82077 299.922 6.46867L299.929 6.74267L299.918 7.78795C300.06 10.0792 300.169 12.7232 299.937 15.0091C300.016 15.9723 300.217 16.9441 299.563 17.7492C296.7 17.0486 294.21 14.8835 291.707 13.4517C291.577 13.2553 291.428 13.2222 291.225 13.1338C289.042 12.1808 287.822 9.54076 287 7.46853L287.553 7.00465L287.426 6.91026C288.789 4.92949 289.082 2.75775 290.344 0.811637L290.158 0Z"/>
	<path fill="#81FCED" transform="matrix(3.84667 0 0 3.84 0 0.000244141)" d="M299.312 0L299.742 0C300.292 1.5309 300.142 4.82077 299.922 6.46867L296.332 6.48007L297.226 6.17787L297.25 5.99954L296.542 5.82255C296.865 5.5412 297.114 5.21444 297.375 4.8775L297.722 5.25928C298.474 5.42766 298.282 5.04573 298.751 5.00125C298.927 4.9846 299.072 5.30622 299.439 5.25C299.448 4.9194 299.498 4.52113 299.351 4.21668L299.327 4.16882C299.71 3.50373 299.468 0.79537 299.312 0Z"/>
	<path fill="#61DFD2" transform="matrix(3.84667 0 0 3.84 0 0.000244141)" d="M296.332 6.48007L299.922 6.46867L299.929 6.74267C298.981 6.82686 298.143 6.98208 297.481 7.75C296.732 8.61807 296.103 8.66698 295.083 9.10451C293.144 9.93535 292.164 11.5023 291.707 13.4517C291.577 13.2553 291.428 13.2222 291.225 13.1338C289.042 12.1808 287.822 9.54076 287 7.46853L287.553 7.00465L296.332 6.48007Z"/>
	<path fill="#53C8B4" transform="matrix(3.84667 0 0 3.84 0 0.000244141)" d="M291.707 13.4517C292.164 11.5023 293.144 9.93535 295.083 9.10451C296.103 8.66698 296.732 8.61807 297.481 7.75C298.143 6.98208 298.981 6.82686 299.929 6.74267L299.918 7.78795C300.06 10.0792 300.169 12.7232 299.937 15.0091C300.016 15.9723 300.217 16.9441 299.563 17.7492C296.7 17.0486 294.21 14.8835 291.707 13.4517Z"/>
	<path fill="#38B8AE" transform="matrix(3.84667 0 0 3.84 0 0.000244141)" d="M299.918 7.78795C300.06 10.0792 300.169 12.7232 299.937 15.0091L299.724 14.9308C299.447 14.7573 299.122 14.4122 298.973 14.125C298.438 13.0914 297.966 10.691 298.321 9.57958C298.604 8.69198 298.842 8.42668 299.654 7.99941L299.918 7.78795Z"/>
	<path fill="#96EBFC" transform="matrix(3.84667 0 0 3.84 0 0.000244141)" d="M0 -0L13.8399 0L15.4441 0L23.1094 0L38.4795 0L68.0997 0L82.4135 0L104.624 0L114.621 0L126.105 0L133.91 0L146.542 0C146.767 0.595563 146.96 1.25919 147.377 1.75C147.428 2.82402 148.088 4.87409 147.375 5.75C146.737 5.72792 145.551 5.50823 145 5.75C144.434 5.59106 143.996 5.37773 143.501 5.0625L143.444 5.10353C143.131 5.31755 142.773 5.26782 142.413 5.24952C144.337 5.99736 146.088 6.15257 148.134 6.22545C148.133 7.14786 148.246 8.16737 147.695 8.95947C147.834 9.74094 148.009 10.7381 147.88 11.5285C148.753 11.9182 149.72 12.5422 150.579 12.8625C150.863 12.9681 151.266 12.8329 151.5 12.9207C151.852 13.053 152.391 13.985 152.664 14.2765L152.715 14.5301C154.274 15.0465 155.702 15.9754 157.134 16.7656C156.393 20.1191 156.104 23.8029 154.589 26.9265C154.04 28.0589 153.125 29.1493 152.375 30.1601C151.961 30.3897 151.745 30.4055 151.286 30.3301C150.683 31.414 151.159 33.5359 151.285 34.8135C151.304 35.0083 151.461 35.7533 151.41 35.875C151.377 35.956 150.968 36.225 150.875 36.2981C150.066 35.9704 149.601 35.673 148.735 35.875C148.661 37.0588 149.673 37.3643 150.049 38.3822C150.057 38.4036 150.023 38.5488 150.018 38.5763C149.552 41.4375 148.243 43.5231 147.46 46.2055C147.289 46.7931 147.792 47.3857 147.535 47.936C146.403 50.3562 144.494 51.8298 143.989 54.6468C143.941 54.9114 143.608 56.4979 143.701 56.6539C144.057 57.2528 143.886 58.6021 143.873 59.3168C142.735 60.6376 140.764 63.5857 139.199 64.2392C138.866 65.5445 137.022 66.6773 136.239 67.8126C135.423 68.9939 135.027 70.2851 134.391 71.5451C133.755 72.8041 132.878 73.9526 131.941 75L119.231 75L90.5638 75L87.2458 75L86.8171 75L82.4954 75L81.1498 75L79.5829 75L39.9322 75L36.018 75L29.7669 75L24.6187 75L20.8347 75L0.546507 75L0 75L0 66.5257L0 34.8694L0 34.3217L0 30.831L0 24.9133L0 21.8644L0 11.6435L0 5.33161L0 3.53467L0 -0Z"/>
	<path fill="#6FD7FC" transform="matrix(3.84667 0 0 3.84 0 0.000244141)" d="M35.6913 33.7827C36.7617 32.7698 36.8616 31.3149 37.8007 30.1065C38.6279 29.042 39.1763 29.0844 40.4323 28.9256C41.3138 29.7689 42.1926 29.7838 43.362 29.8576C42.523 29.9578 41.2633 29.884 40.7396 30.5566C39.9963 31.5114 40.585 32.3185 39.7488 33.1522C38.9146 33.2336 37.993 33.255 37.1811 33.4487L35.6913 33.7827Z"/>
	<path fill="#B4F2FA" transform="matrix(3.84667 0 0 3.84 0 0.000244141)" d="M37.1811 33.4487L40.125 33.4977C40.6275 34.1593 40.4923 34.5684 40.4721 35.375C39.658 36.2634 38.8995 37.1638 38.2104 38.1538C37.6816 38.9136 37.2115 39.9655 36.375 40.3591L35.7277 39.875C35.6194 38.8723 36.326 37.8873 36.125 37.065L35.6112 36.875C34.8644 37.3245 34.5046 37.7424 33.625 37.5762L33.247 36.9828C33.6243 35.3548 34.3712 34.724 35.6913 33.7827L37.1811 33.4487Z"/>
	<path fill="#B4F2FA" transform="matrix(3.84667 0 0 3.84 0 0.000244141)" d="M45.2271 40.8471C44.9333 40.4552 44.9368 40.2254 44.8725 39.75C45.4635 39.1195 45.4089 38.4314 45.6551 37.6583C46.256 35.771 46.9016 33.9234 47.72 32.1194C47.9437 31.6263 48.0187 31.0401 48.3725 30.625C49.524 30.4723 52.0684 31.0434 53.125 31.5094C53.2188 32.4091 52.6738 32.8934 52.5853 33.774C52.523 34.3948 52.8376 35.0625 52.7101 35.6737C52.4987 36.6871 52.0149 37.3673 51.9192 38.4969C50.8425 39.0442 49.7598 39.6665 48.5596 39.8825C47.3944 40.1163 46.3138 40.356 45.2271 40.8471Z"/>
	<path fill="#6FD7FC" transform="matrix(3.84667 0 0 3.84 0 0.000244141)" d="M58.8301 36.6832C60.3756 36.5675 62.004 36.2061 63.547 36.2792C64.8499 36.341 66.218 36.7846 67.4571 37.1762L71.015 38.6829L74.6868 40.3526C75.4115 40.8554 76.7818 41.5654 77.2579 42.2725L77.6804 42.7423L77.6809 43.4416C76.7925 44.183 75.6462 44.0028 74.8209 44.5389C74.2557 44.9061 73.6439 45.8298 73.2411 46.39C71.9414 48.1973 70.7857 50.0802 69.7534 52.0524C69.4504 52.6313 68.8333 53.4022 68.7736 54.0525C68.6387 55.5202 68.3576 56.9293 67.1471 57.963L66.9643 58.0979L66.1007 59.0384C65.398 58.5883 65.2501 58.071 64.7122 57.5378C64.421 57.2491 63.8498 57.062 63.4919 56.7972C62.8432 56.3171 61.2828 54.5067 60.6743 54.395C60.5639 54.3747 60.4011 54.048 60.33 53.9443C59.9525 53.3932 59.435 53.1374 58.9652 52.6902C58.3845 52.1373 57.9943 51.295 57.9708 50.5C58.6411 49.526 59.9636 49.157 61.0238 48.7354C60.063 48.479 59.0663 48.2428 58.1257 47.9258C57.6718 47.7728 57.2836 47.4794 56.7886 47.4453C55.5517 47.3601 53.9137 47.9649 52.6781 48.1979C51.1863 48.4791 49.73 48.384 48.2373 48.1902C47.83 47.6252 47.2544 47.1955 46.7232 46.7523C46.5762 46.1058 46.6598 45.5781 46.7803 44.9331L47.3765 44.6343L46.875 44.1275L45.625 45.3775C45.1108 45.1643 44.4705 44.9721 44.1131 44.5284L44.6378 43.8032C44.4545 43.2244 44.2663 43.0943 43.8125 42.6875C44.3498 41.4089 47.4115 40.9003 48.5596 39.8825C49.7598 39.6665 50.8425 39.0442 51.9192 38.4969C54.0107 37.7135 56.6303 37.0151 58.8301 36.6832Z"/>
	<path fill="#B4F2FA" transform="matrix(3.84667 0 0 3.84 0 0.000244141)" d="M40.129 46.2927C40.937 46.3487 42.7987 46.9356 43.4552 47.375L43.66 47.875C42.8949 48.5535 42.0673 49.3714 42.0054 50.4375C41.9633 51.1631 42.1035 51.6916 42.6032 52.2477C43.1175 52.8201 43.7111 53.2289 44.5 53.2648C46.218 53.3429 48.3398 52.7712 49.94 53.3717C50.861 53.7174 51.7125 54.3937 52.6074 54.8315C53.5266 55.2812 55.0453 56.0178 55.7352 56.75C56.9687 58.0591 57.4564 59.1957 59.5274 59.2888C60.8792 59.3495 62.3295 59.2103 63.6643 59.4304C63.9234 59.4731 65.1363 59.9895 65.25 59.9661C65.3854 59.9381 65.742 59.6216 65.875 59.5286L66.1007 59.0384L66.9643 58.0979L67.6783 58.5018C67.742 59.1909 67.9139 60.1475 67.8171 60.8301C67.6031 62.3386 66.1167 64.7225 67.4146 66.25C67.8317 65.6893 67.8259 65.0872 67.8614 64.4189L68.125 65.416L68.5042 65.5965C68.6954 65.0271 68.9043 64.5205 69.375 64.1275C69.6208 64.3824 70.22 65.1748 70.5 65.2942C71.1305 65.5631 72.823 65.4117 73.625 65.517L74.0719 65.0095C74.6697 65.2055 74.8119 65.2929 75.4102 65.103C76.0144 65.9857 76.8068 66.5687 77.4764 67.375C78.9882 69.1956 79.7303 71.8234 79.9863 74.125L79.5829 75L39.9322 75C39.9054 72.6142 39.454 70.7801 37.7888 69.0466L35.2256 66.3471C34.4789 65.4271 33.6813 62.8193 32.875 62.3775L33 63.5C32.7212 63.8381 32.6241 64.2136 32.5 64.625C32.2737 64.8411 31.9462 65.236 31.6485 65.3271C31.4475 65.3886 31.2948 65.5068 31.125 65.6275L30.8937 65.1834C31.6104 63.7887 30.7831 61.6447 31.3285 59.9604C31.5736 59.2036 31.9077 58.308 32.4134 57.6817C32.9875 56.9706 33.7128 56.4593 34.125 55.6225L34.4137 56.4046L34.6232 55.9177C35.0318 55.9044 35.2966 55.9938 35.68 56.0366C36.3347 56.1097 36.859 56.2028 37.375 55.7818C37.0175 54.1904 37.0917 52.6661 37.1553 51.0492C37.7718 49.3019 39.0281 47.7624 40.129 46.2927Z"/>
	<defs>
		<linearGradient id="gradient_0" gradientUnits="userSpaceOnUse" x1="73.62001" y1="48.062031" x2="109.62645" y2="82.889977">
			<stop offset="0" stop-color="#B0EDFB"/>
			<stop offset="1" stop-color="#F3FCFD"/>
		</linearGradient>
	</defs>
	<path fill="url(#gradient_0)" transform="matrix(3.84667 0 0 3.84 0 0.000244141)" d="M77.2579 42.2725C77.1977 41.9368 77.1507 41.5925 77.0358 41.2704L77.2586 40.7586C77.3603 40.7352 77.4703 40.7195 77.5746 40.7201C78.5206 40.7257 80.2283 41.7126 81.234 41.9644C81.9278 42.1381 82.6517 42.0177 83.3121 42.1794L83.4534 42.216C84.0812 42.1593 84.2274 42.2346 84.6682 41.7583L85.75 41.3099C86.1571 41.6023 86.4451 41.8413 86.5227 42.375C86.7955 44.2492 86.3339 44.6989 87.9955 45.9881C89.5979 47.2314 91.9303 47.3594 93.4135 48.7688C96.5152 51.716 97.4916 55.7403 100.055 58.9282C102.269 61.6809 104.98 63.2429 107.968 64.9937C108.531 65.3238 109.358 65.5257 109.813 65.9313C110.676 66.7022 111.422 67.9636 112.137 68.8895C113.736 70.9599 115.39 72.8656 117.639 74.2438L119.155 74.7279L119.231 75L90.5638 75L87.2458 75L86.8171 75L82.4954 75L81.1498 75L79.5829 75L79.9863 74.125C79.7303 71.8234 78.9882 69.1956 77.4764 67.375C76.8068 66.5687 76.0144 65.9857 75.4102 65.103C74.8119 65.2929 74.6697 65.2055 74.0719 65.0095L73.625 65.517C72.823 65.4117 71.1305 65.5631 70.5 65.2942C70.22 65.1748 69.6208 64.3824 69.375 64.1275C68.9043 64.5205 68.6954 65.0271 68.5042 65.5965L68.125 65.416L67.8614 64.4189C67.8259 65.0872 67.8317 65.6893 67.4146 66.25C66.1167 64.7225 67.6031 62.3386 67.8171 60.8301C67.9139 60.1475 67.742 59.1909 67.6783 58.5018L66.9643 58.0979L67.1471 57.963C68.3576 56.9293 68.6387 55.5202 68.7736 54.0525C68.8333 53.4022 69.4504 52.6313 69.7534 52.0524C70.7857 50.0802 71.9414 48.1973 73.2411 46.39C73.6439 45.8298 74.2557 44.9061 74.8209 44.5389C75.6462 44.0028 76.7925 44.183 77.6809 43.4416L77.6804 42.7423L77.2579 42.2725Z"/>
	<path fill="#D6F7FC" transform="matrix(3.84667 0 0 3.84 0 0.000244141)" d="M82.4954 75C83.7302 74.1019 84.8266 73.9545 86.125 73.3001C86.5671 73.4959 86.6413 73.6271 86.8166 74.0827C86.9289 74.3748 86.8718 74.6999 86.8171 75L82.4954 75Z"/>
	<path fill="#B4F2FA" transform="matrix(3.84667 0 0 3.84 0 0.000244141)" d="M87.2458 75C87.7943 73.7931 88.7495 72.097 90.056 71.6068L90.25 71.5443C90.866 72.1383 90.9874 72.9232 91.0058 73.7885C91.0155 74.2467 90.7945 74.6188 90.5638 75L87.2458 75Z"/>
	<path fill="#D6F7FC" transform="matrix(3.84667 0 0 3.84 0 0.000244141)" d="M75.4102 65.103C75.8267 64.7559 76.097 64.4052 76.3853 63.9479C76.6968 64.0669 77.2402 64.1945 77.503 64.375C77.8096 64.5856 78.3029 65.4524 78.5503 65.7866C79.6073 67.2147 80.5796 68.701 81.7921 70.0058C81.6555 71.6078 81.668 73.4747 81.1498 75L79.5829 75L79.9863 74.125C79.7303 71.8234 78.9882 69.1956 77.4764 67.375C76.8068 66.5687 76.0144 65.9857 75.4102 65.103Z"/>
	<path fill="#68D0F7" transform="matrix(3.84667 0 0 3.84 0 0.000244141)" d="M77.6804 42.7423C79.4389 43.6354 81.3496 45.1413 82.7041 46.5674C83.524 47.4307 84.2948 48.5686 85.2022 49.3058C85.8628 49.8424 86.9938 50.0388 87.5592 50.6768C88.1322 51.3235 88.9077 53.0342 89.1806 53.8699C89.5042 54.8612 89.5407 56.0907 89.6368 57.1309C88.6906 58.2661 87.8142 59.4459 86.4665 60.125L85.5 60.2108C84.6461 59.4661 83.7753 58.408 82.5857 58.3562C81.7425 59.2411 82.7855 60.6938 81.7665 61.375C81.1407 61.7933 79.5943 62.0566 78.8154 62.3375C78.5322 61.2004 78.2848 60.081 78.1292 58.9189C78.0993 58.695 78.0662 57.8645 77.9792 57.75C77.8843 57.6251 77.6128 57.4752 77.4792 57.375C77.1288 57.6219 76.8718 57.7609 76.664 58.1482C75.8349 59.6939 77.3213 62.4563 76.3853 63.9479C76.097 64.4052 75.8267 64.7559 75.4102 65.103C74.8119 65.2929 74.6697 65.2055 74.0719 65.0095L73.625 65.517C72.823 65.4117 71.1305 65.5631 70.5 65.2942C70.22 65.1748 69.6208 64.3824 69.375 64.1275C68.9043 64.5205 68.6954 65.0271 68.5042 65.5965L68.125 65.416L67.8614 64.4189C67.8259 65.0872 67.8317 65.6893 67.4146 66.25C66.1167 64.7225 67.6031 62.3386 67.8171 60.8301C67.9139 60.1475 67.742 59.1909 67.6783 58.5018L66.9643 58.0979L67.1471 57.963C68.3576 56.9293 68.6387 55.5202 68.7736 54.0525C68.8333 53.4022 69.4504 52.6313 69.7534 52.0524C70.7857 50.0802 71.9414 48.1973 73.2411 46.39C73.6439 45.8298 74.2557 44.9061 74.8209 44.5389C75.6462 44.0028 76.7925 44.183 77.6809 43.4416L77.6804 42.7423Z"/>
	<path fill="#D6F7FC" transform="matrix(3.84667 0 0 3.84 0 0.000244141)" d="M67.8614 64.4189C67.9583 63.7909 67.997 62.2382 68.2742 61.7441C68.5519 61.2491 69.857 60.4063 70.3431 59.9954C71.4212 60.0043 73.7215 59.5522 74.4959 60.125C74.4255 61.9166 73.4875 63.1286 74.0719 65.0095L73.625 65.517C72.823 65.4117 71.1305 65.5631 70.5 65.2942C70.22 65.1748 69.6208 64.3824 69.375 64.1275C68.9043 64.5205 68.6954 65.0271 68.5042 65.5965L68.125 65.416L67.8614 64.4189Z"/>
	<path fill="#68D0F7" transform="matrix(3.84667 0 0 3.84 0 0.000244141)" d="M38.4795 0L68.0997 0L82.4135 0L104.624 0C105.178 1.13017 105.595 1.72912 106.493 2.61473L106.267 2.93603L105.651 2.7649C105.089 3.3102 104.906 3.96756 104.434 4.55299C103.658 5.51719 102.429 6.27103 101.955 7.44971C101.666 8.16915 101.647 8.96713 101.379 9.69204C101.011 10.6871 100.594 11.4743 100.575 12.5644C100.56 13.5044 100.718 14.6281 100.522 15.5412C100.219 16.9494 99.1914 18.5293 98.6531 19.912C98.2184 21.029 98.1566 22.281 97.2776 23.136L97.1315 23.2747C98.0024 24.7023 97.9231 28.1777 97.5435 29.7344C97.2005 31.1408 96.7759 31.916 95.4796 32.6935C94.7218 33.1481 93.7989 33.5023 92.9082 33.5137C92.0961 34.1238 91.2203 34.5247 90.2371 34.7875C90.0631 35.5746 88.4821 36.7855 87.7935 37.2328C87.6091 37.3526 87.4002 37.4439 87.1927 37.5157C86.4349 38.1264 86.0647 37.6348 85.3725 38.5L85.8642 39.25C85.6691 40.1875 85.4016 41.0878 84.6682 41.7583C84.2274 42.2346 84.0812 42.1593 83.4534 42.216L83.3121 42.1794C82.6517 42.0177 81.9278 42.1381 81.234 41.9644C80.2283 41.7126 78.5206 40.7257 77.5746 40.7201C77.4703 40.7195 77.3603 40.7352 77.2586 40.7586L77.0358 41.2704C77.1507 41.5925 77.1977 41.9368 77.2579 42.2725C76.7818 41.5654 75.4115 40.8554 74.6868 40.3526L71.015 38.6829L67.4571 37.1762C66.218 36.7846 64.8499 36.341 63.547 36.2792C62.004 36.2061 60.3756 36.5675 58.8301 36.6832L59.1262 36.3125C58.6377 36.2637 58.5515 36.2156 58.125 36.5L57.7674 36.3506C56.8269 36.5755 56.1307 36.5788 55.375 37.25L54.625 37.1275L54.3762 37.4375C53.8481 37.4752 53.618 37.5993 53.2031 37.25C52.9279 36.569 53.2991 35.5482 53.443 34.8369L53.125 34.5C52.9443 32.6911 54.8176 31.1135 55.7793 29.7788C56.2021 29.974 57.3293 30.2629 57.625 30.5C57.8057 30.6449 57.8853 31.0302 58.0625 31.1875C58.3923 31.4802 58.9753 31.6392 59.375 32L59.631 31.9835C59.5447 31.8178 57.8791 29.8228 57.8218 29.8032C57.668 29.7505 57.3068 29.8905 57.125 29.8725C56.9094 29.8511 56.4474 29.5521 56.2304 29.4494L55.1014 29.3397C54.8221 29.7268 54.6258 29.8867 54.6225 30.375L53.875 31.082L53.4375 30.8506L53.125 31.1225C52.8673 30.8269 50.8894 30.4212 50.3125 30.3653C49.604 30.2967 49.0208 29.8251 48.4356 29.4459L48.375 29.8725C47.6632 30.0686 47.5683 30.1448 46.9035 29.8413C46.5653 28.8659 46.9765 27.6669 47.1557 26.6466C47.0647 26.136 46.9189 25.8028 46.6275 25.375L46.0107 25.5169C45.2488 25.4759 45.0442 25.0872 44.3995 24.875C43.5701 24.602 42.6522 24.4579 41.7957 24.2835L41.869 23.0158C42.5187 23.1932 43.2585 23.4995 43.8929 23.154L43.8841 22.1129L43.5642 20.2626L42.5942 15.7298C42.2154 15.1211 42.8527 13.1697 42.7479 12.375C42.7176 12.1459 42.4398 11.7196 42.3333 11.4931L40.5815 11.4926C40.1846 11.6328 39.653 11.3851 39.2647 11.266L39.0934 10.862C38.3816 9.87885 38.5025 8.08916 38.4965 6.91896L38.9697 6.90119C38.8054 6.60807 38.8737 6.35656 38.8668 6.03597C38.8458 5.06228 38.1705 4.26671 37.5055 3.625L37.5532 3.125L38.625 2.9804C39.1523 2.20259 38.6546 0.929277 38.4795 0Z"/>
	<path fill="#6FD7FC" transform="matrix(3.84667 0 0 3.84 0 0.000244141)" d="M55.1014 29.3397C54.504 28.7436 53.4842 27.8694 52.5625 28.1875C52.1912 27.8227 51.9103 27.9679 51.625 27.75C51.551 27.6935 51.2999 26.7748 51.25 26.625L51.75 25.875L52.3121 25.8032C52.6112 25.7782 52.7671 25.6847 53 25.5C53.4374 25.4577 54.0336 25.5343 54.4375 25.4375C55.046 25.2917 55.2243 24.9239 55.9715 25.125C56.5204 25.6069 56.5756 25.6886 56.7067 26.4066L56.6751 26.4462C56.3126 26.9108 56.2267 27.4108 56.3104 27.9934C56.3987 28.6081 56.4804 28.8466 56.2304 29.4494L55.1014 29.3397Z"/>
	<path fill="#6FD7FC" transform="matrix(3.84667 0 0 3.84 0 0.000244141)" d="M68.9673 33.3287C68.193 33.3146 66.845 33.1093 66.2374 32.5989C65.8956 32.3118 65.8464 32.0132 65.8114 31.5811C65.7628 30.9817 65.9906 30.2713 66.3807 29.8163C66.7143 29.4272 67.9454 29.1369 68.4653 29.1059C70.409 28.9898 70.0663 30.6978 71.1225 31.625C72.024 31.8962 76.0738 33.4815 76.6339 33.25C77.3293 32.1793 76.5221 30.2116 76.3256 29C76.4121 28.8156 76.7338 27.957 76.8533 27.875C77.3695 27.5208 78.5617 27.5762 79.2193 27.217C79.7621 26.9206 80.0134 26.1773 80.5437 25.9384C80.6364 25.8966 80.7385 25.8645 80.8377 25.8431C80.8537 25.8396 81.36 26.3682 81.4316 26.4352C82.1601 27.1179 83.9222 27.7103 84.9377 28.1037C85.092 28.1634 87.22 27.6257 87.5012 27.5012C87.5012 27.0713 85.885 26.0657 85.6454 25.3012C85.4539 24.6906 84.5766 24.4406 84.0419 24.1424C84.201 24.0473 84.2848 23.9748 84.3762 23.8125L83.4177 23.406L83.625 23.25C83.4736 22.7634 83.3256 22.7513 82.9035 22.5L83.1262 22.0625C82.6909 21.7414 82.3519 21.4198 82.0106 21C81.8177 19.9391 81.046 18.6008 81.3146 17.5625C81.517 18.3155 81.8299 18.3735 82.1663 18.9831C82.2856 19.1994 82.265 19.58 82.375 19.75C82.4853 19.9205 83.4648 20.3567 83.75 20.625L84.3327 20.375C84.3444 20.0478 84.4542 19.4205 84.3775 19.125C84.3521 19.027 84.1278 18.8335 84.1275 18.75C84.1268 18.5409 84.3762 18.0216 84.3775 17.625L84.1275 17.375C84.3707 17.0698 84.785 16.9977 85.0012 16.7512C85.544 16.1327 86.1247 14.7675 86.7512 14.2513C86.8495 14.1703 87.1375 14.2025 87.25 14.1275C87.6381 13.8688 88.1212 13.284 88.5012 13.0012C88.9398 12.675 89.4298 12.5187 89.875 12.1275C90.0641 12.3564 90.2017 12.5513 90.5 12.6275L90.7512 12.2512L91.0625 12.6262C91.548 12.4392 91.995 12.5062 92.4658 12.7106C92.719 12.8205 92.9781 12.8452 93.25 12.8775L93.4448 13.403C91.9475 13.1809 89.4026 13.9845 88.1955 14.8833C87.2156 15.6128 86.43 16.3795 85.7376 17.3847C85.4767 19.9544 85.2835 21.6956 85.952 24.2448C86.6367 24.9006 88.0425 25.9644 88.3577 26.8326C88.4904 27.1979 88.3536 27.3622 88.2155 27.7038C87.344 28.359 86.338 28.5801 85.3028 28.861L82.125 27.7294C81.5925 28.0282 80.6132 28.4668 79.9916 28.2858C79.3212 28.0905 78.6098 28.1212 77.9696 28.4655C77.7867 28.5639 77.3047 28.9183 77.2474 29.1201C77.0763 29.7236 77.3191 29.9914 77.3794 30.5631C77.5545 32.2233 77.7819 34.6991 78.6089 36.1538L78.6825 36.2816C76.0489 36.5235 73.8843 35.3094 71.4406 34.5024C70.6022 34.2399 69.7548 33.7259 68.9673 33.3287Z"/>
	<path fill="#6FD7FC" transform="matrix(3.84667 0 0 3.84 0 0.000244141)" d="M46.8928 18.5025C46.7544 19.6176 46.1324 22.4047 46.697 23.3726C49.0722 22.2672 53.2619 20.9338 54.9752 18.9478C56.538 18.8066 57.9591 19.0087 59.5063 19.0808C60.4375 19.7607 62.0249 20.8595 63.1016 21.2295C64.1269 21.9849 66.0854 23.3005 66.304 24.6097C66.4335 25.3854 66.3764 25.9513 65.951 26.6176C66.6341 26.3909 67.1146 26.3471 67.8274 26.4464L67.7283 26.7163C66.35 26.7733 65.3295 27.3516 63.9418 27.1832L63.3734 26.586L63.152 27.1266C61.8997 26.4979 61.1172 24.7263 59.9488 24.3186C59.4823 24.1559 56.4361 23.8075 56.3273 23.5426L56.1585 23.1223L56.0479 22.8189C55.8979 22.3628 55.9196 22.2797 55.5004 22.0004C53.7473 22.3554 51.8258 23.4282 50.8353 24.9487C50.3972 25.6213 50.3128 26.5325 49.8819 27.276L49.5531 27.1747C49.0173 27.9052 48.7268 28.5946 48.4356 29.4459L48.375 29.8725C47.6632 30.0686 47.5683 30.1448 46.9035 29.8413C46.5653 28.8659 46.9765 27.6669 47.1557 26.6466C47.0647 26.136 46.9189 25.8028 46.6275 25.375L46.0107 25.5169L46.4266 24.625L46.1965 24.0837C46.2424 23.0374 46.2676 22.0072 46.2064 20.9609C46.1868 20.6249 46.0193 19.8099 46.0965 19.5332C46.1638 19.2919 46.7167 18.7304 46.8928 18.5025Z"/>
	<path fill="#6FD7FC" transform="matrix(3.84667 0 0 3.84 0 0.000244141)" d="M42.3333 11.4931C42.6976 11.5744 42.9274 11.9584 43.2488 12.068C44.6536 12.5471 46.6686 12.1517 48.2431 12.5916C49.8492 13.0403 50.8484 14.196 52.5529 14.1306C53.6752 14.0875 54.5121 13.2672 55.5797 13.1329C55.765 13.1096 57.0563 11.4318 57.375 11.1275C57.4274 9.50751 56.8353 8.15406 56.3441 6.6275C57.44 6.63531 58.7236 6.77121 59.7981 6.61107C61.4045 6.37163 63.1885 5.68523 64.7361 5.16769C65.6942 4.8473 66.6691 4.65382 67.5736 4.16075C68.5818 3.61117 68.9321 2.45149 70.2741 2.18148C70.5136 2.13331 70.6568 2.04807 70.8485 1.89849L70.875 1.8775C71.427 1.8775 71.655 1.81437 72.1225 2.125L72.2265 2.875C71.8115 4.11524 70.8453 5.20597 69.9861 6.17081L69.7037 5.7287C68.9422 6.43763 68.5148 7.15786 67.8762 7.9375C67.6754 8.1827 67.2832 8.39 67.1275 8.625C67.0336 8.76677 67.0864 9.09526 67.0012 9.25125C66.8788 9.4756 66.5796 9.62335 66.4632 9.8822C66.0223 10.863 65.6811 12.0506 65.2835 13.0767C64.9847 13.848 64.8148 14.7229 64.3061 15.3913C63.1146 16.9571 61.1692 18.086 59.5063 19.0808C57.9591 19.0087 56.538 18.8066 54.9752 18.9478C53.2619 20.9338 49.0722 22.2672 46.697 23.3726C46.1324 22.4047 46.7544 19.6176 46.8928 18.5025C46.7167 18.7304 46.1638 19.2919 46.0965 19.5332C46.0193 19.8099 46.1868 20.6249 46.2064 20.9609C46.2676 22.0072 46.2424 23.0374 46.1965 24.0837L46.4266 24.625L46.0107 25.5169C45.2488 25.4759 45.0442 25.0872 44.3995 24.875C43.5701 24.602 42.6522 24.4579 41.7957 24.2835L41.869 23.0158C42.5187 23.1932 43.2585 23.4995 43.8929 23.154L43.8841 22.1129L43.5642 20.2626L42.5942 15.7298C42.2154 15.1211 42.8527 13.1697 42.7479 12.375C42.7176 12.1459 42.4398 11.7196 42.3333 11.4931Z"/>
	<path fill="#5ED2FA" transform="matrix(3.84667 0 0 3.84 0 0.000244141)" d="M42.5942 15.7298L42.9288 14.656L43.375 14.641C43.7633 15.0936 44.1469 15.6441 44.75 15.7995C45.7653 15.6498 46.0967 14.6905 47.0035 14.6873C47.6529 15.347 47.7622 16.1355 47.8998 17.0193C47.6281 17.4523 47.2857 18.1952 46.8928 18.5025C46.7167 18.7304 46.1638 19.2919 46.0965 19.5332C46.0193 19.8099 46.1868 20.6249 46.2064 20.9609C46.2676 22.0072 46.2424 23.0374 46.1965 24.0837L46.4266 24.625L46.0107 25.5169C45.2488 25.4759 45.0442 25.0872 44.3995 24.875C43.5701 24.602 42.6522 24.4579 41.7957 24.2835L41.869 23.0158C42.5187 23.1932 43.2585 23.4995 43.8929 23.154L43.8841 22.1129L43.5642 20.2626L42.5942 15.7298Z"/>
	<path fill="#96EBFC" transform="matrix(3.84667 0 0 3.84 0 0.000244141)" d="M47.8998 17.0193C48.0359 16.5581 47.9388 16.0922 47.8775 15.625L48.375 15.1275C48.756 15.5085 49.1408 15.3049 49.6225 15.625L49.875 15.3775C51.3107 15.352 52.2655 15.4744 53.625 15.8775C54.4022 15.5562 54.1974 15.1277 54.709 14.5579C56.0738 13.0378 57.8843 14.2818 59.5 14.1275C61.587 13.9283 63.2403 10.7307 64.625 9.3775C65.193 8.82245 65.8527 8.45194 66.3959 7.76239C66.6166 7.48226 66.6435 7.05237 66.8478 6.76373C67.44 5.92711 68.1212 4.78715 68.827 4.00506C69.6134 3.13354 70.4067 2.94555 71.5 2.8725L71.6275 3.125C71.1282 4.0506 70.3336 4.87679 69.7037 5.7287C68.9422 6.43763 68.5148 7.15786 67.8762 7.9375C67.6754 8.1827 67.2832 8.39 67.1275 8.625C67.0336 8.76677 67.0864 9.09526 67.0012 9.25125C66.8788 9.4756 66.5796 9.62335 66.4632 9.8822C66.0223 10.863 65.6811 12.0506 65.2835 13.0767C64.9847 13.848 64.8148 14.7229 64.3061 15.3913C63.1146 16.9571 61.1692 18.086 59.5063 19.0808C57.9591 19.0087 56.538 18.8066 54.9752 18.9478C53.2619 20.9338 49.0722 22.2672 46.697 23.3726C46.1324 22.4047 46.7544 19.6176 46.8928 18.5025C47.2857 18.1952 47.6281 17.4523 47.8998 17.0193Z"/>
	<path fill="#5ED2FA" transform="matrix(3.84667 0 0 3.84 0 0.000244141)" d="M93.4448 13.403C93.8953 13.7704 94.489 14.1608 94.75 14.6887C95.3233 14.5893 95.6388 14.3538 95.979 13.8821C96.037 13.8016 96.0835 13.7173 96.125 13.6275C96.4865 13.6661 97.5291 13.5654 97.8274 13.3327L97.9326 13.2385C98.0621 13.1214 98.3335 13.0571 98.5 13L98.7494 13.3664C98.2913 13.9038 97.8052 13.9732 97.173 14.1717C94.9637 14.8653 94.6285 16.6427 94.1378 18.6304C95.132 19.703 97.248 21.4286 97.1662 23.0188L97.1315 23.2747C98.0024 24.7023 97.9231 28.1777 97.5435 29.7344C97.2005 31.1408 96.7759 31.916 95.4796 32.6935C94.7218 33.1481 93.7989 33.5023 92.9082 33.5137C92.0961 34.1238 91.2203 34.5247 90.2371 34.7875C90.0631 35.5746 88.4821 36.7855 87.7935 37.2328C87.6091 37.3526 87.4002 37.4439 87.1927 37.5157C84.494 36.6226 81.4877 36.792 78.6825 36.2816L78.6089 36.1538C77.7819 34.6991 77.5545 32.2233 77.3794 30.5631C77.3191 29.9914 77.0763 29.7236 77.2474 29.1201C77.3047 28.9183 77.7867 28.5639 77.9696 28.4655C78.6098 28.1212 79.3212 28.0905 79.9916 28.2858C80.6132 28.4668 81.5925 28.0282 82.125 27.7294L85.3028 28.861C86.338 28.5801 87.344 28.359 88.2155 27.7038C88.3536 27.3622 88.4904 27.1979 88.3577 26.8326C88.0425 25.9644 86.6367 24.9006 85.952 24.2448C85.2835 21.6956 85.4767 19.9544 85.7376 17.3847C86.43 16.3795 87.2156 15.6128 88.1955 14.8833C89.4026 13.9845 91.9475 13.1809 93.4448 13.403Z"/>
	<path fill="#5ED2FA" transform="matrix(3.84667 0 0 3.84 0 0.000244141)" d="M38.4795 0L68.0997 0L82.4135 0L82.875 0.75C83.6182 0.751063 84.7276 0.607313 85.375 1L86 0.875L86.5 1.25C86.9924 1.0798 87.216 1.12643 87.6915 1.36761C88.0746 1.56197 88.2854 1.99657 88.625 2.25C89.6071 2.98293 92.0652 3.82526 93.2687 3.41868C93.8004 3.23906 94.7551 2.71144 95.25 2.6275C95.6828 2.5541 95.747 2.69722 96.2207 2.4502C96.6466 2.22809 99.1649 1.5558 99.625 1.6275C98.8918 2.2141 98.7947 1.90363 98.0466 2.1633C95.9348 2.8963 93.9166 3.58874 91.7013 4.0073C88.605 2.62191 86.4101 1.03715 82.8922 1.14872C82.3508 1.16589 81.5763 1.0972 81.0792 1.27466C80.2655 1.5652 79.4028 2.38269 78.6618 2.85428C76.3586 4.32002 73.7495 5.18948 72.567 7.87553L72.375 8.3775L72.3065 8.39134C71.9545 8.46837 71.845 8.80397 71.625 8.8775C71.4242 8.94463 71.0727 8.80724 70.875 8.8775C70.0197 9.1815 70.3994 9.87924 69.1225 9.875L68.3725 9.125C68.4706 7.88699 69.1718 7.05057 69.9861 6.17081C70.8453 5.20597 71.8115 4.11524 72.2265 2.875L72.1225 2.125C71.655 1.81437 71.427 1.8775 70.875 1.8775L70.8485 1.89849C70.6568 2.04807 70.5136 2.13331 70.2741 2.18148C68.9321 2.45149 68.5818 3.61117 67.5736 4.16075C66.6691 4.65382 65.6942 4.8473 64.7361 5.16769C63.1885 5.68523 61.4045 6.37163 59.7981 6.61107C58.7236 6.77121 57.44 6.63531 56.3441 6.6275C56.8353 8.15406 57.4274 9.50751 57.375 11.1275C57.0563 11.4318 55.765 13.1096 55.5797 13.1329C54.5121 13.2672 53.6752 14.0875 52.5529 14.1306C50.8484 14.196 49.8492 13.0403 48.2431 12.5916C46.6686 12.1517 44.6536 12.5471 43.2488 12.068C42.9274 11.9584 42.6976 11.5744 42.3333 11.4931L40.5815 11.4926C40.1846 11.6328 39.653 11.3851 39.2647 11.266L39.0934 10.862C38.3816 9.87885 38.5025 8.08916 38.4965 6.91896L38.9697 6.90119C38.8054 6.60807 38.8737 6.35656 38.8668 6.03597C38.8458 5.06228 38.1705 4.26671 37.5055 3.625L37.5532 3.125L38.625 2.9804C39.1523 2.20259 38.6546 0.929277 38.4795 0Z"/>
	<defs>
		<linearGradient id="gradient_1" gradientUnits="userSpaceOnUse" x1="38.404999" y1="3.2117794" x2="62.782974" y2="0.27358294">
			<stop offset="0" stop-color="#2AA4D6"/>
			<stop offset="1" stop-color="#3FC0EE"/>
		</linearGradient>
	</defs>
	<path fill="url(#gradient_1)" transform="matrix(3.84667 0 0 3.84 0 0.000244141)" d="M38.4795 0L68.0997 0C67.1789 0.37825 66.2227 0.703087 65.228 0.814969C64.668 0.877963 64.1049 0.749948 63.5424 0.862116C62.5564 1.05875 61.6744 1.78753 60.6789 2.02505C58.2415 2.60663 55.1029 2.62401 52.5944 2.78603C51.7938 2.83774 50.2173 2.80455 49.5149 3.1988C47.5307 3.64283 46.1029 4.86736 44.2757 5.67657C42.605 6.41648 40.7547 6.61785 38.9697 6.90119C38.8054 6.60807 38.8737 6.35656 38.8668 6.03597C38.8458 5.06228 38.1705 4.26671 37.5055 3.625L37.5532 3.125L38.625 2.9804C39.1523 2.20259 38.6546 0.929277 38.4795 0Z"/>
	<path fill="#68D0F7" transform="matrix(3.84667 0 0 3.84 0 0.000244141)" d="M0 -0L13.8399 0L15.4441 0L23.1094 0L38.4795 0C38.6546 0.929277 39.1523 2.20259 38.625 2.9804L37.5532 3.125L37.5055 3.625C38.1705 4.26671 38.8458 5.06228 38.8668 6.03597C38.8737 6.35656 38.8054 6.60807 38.9697 6.90119L38.4965 6.91896C38.5025 8.08916 38.3816 9.87885 39.0934 10.862L39.2647 11.266C39.653 11.3851 40.1846 11.6328 40.5815 11.4926L42.3333 11.4931C42.4398 11.7196 42.7176 12.1459 42.7479 12.375C42.8527 13.1697 42.2154 15.1211 42.5942 15.7298L43.5642 20.2626L43.8841 22.1129L43.8929 23.154C43.2585 23.4995 42.5187 23.1932 41.869 23.0158L41.7957 24.2835C41.41 25.4262 41.5009 26.3233 41.6734 27.5012C42.3541 28.4507 43.3466 28.3384 43.9592 29.375C43.7843 29.5567 43.6098 29.7823 43.362 29.8576C42.1926 29.7838 41.3138 29.7689 40.4323 28.9256C39.1763 29.0844 38.6279 29.042 37.8007 30.1065C36.8616 31.3149 36.7617 32.7698 35.6913 33.7827C34.3712 34.724 33.6243 35.3548 33.247 36.9828C33.3153 38.69 33.2526 39.5684 34.528 40.7876C35.0221 41.4857 35.5552 42.0935 35.4487 43C34.2031 44.299 32.6441 43.4453 31.907 45.4142C32.4008 46.3385 33.049 46.6582 33.625 47.4285C34.622 48.7617 34.4481 51.6882 34.617 53.359L33.3754 55.256C32.9605 55.523 32.1908 55.8764 31.875 56.2216C31.588 56.5353 31.5673 57.3538 31.3775 57.75C31.2342 58.0491 30.9235 58.2987 30.8541 58.6275C30.4604 60.4931 30.4899 61.9863 30.375 63.8775C30.3501 64.2865 30.147 64.6807 30.1447 65.0768L30.6776 66.3273L30.9527 67.581L31.41 67.625C31.8555 67.0651 32.0415 66.2011 32.625 65.931C33.4873 66.6479 33.5767 66.5463 34.6562 66.446C34.853 66.4277 35.035 66.4002 35.2256 66.3471L37.7888 69.0466C39.454 70.7801 39.9054 72.6142 39.9322 75L36.018 75L29.7669 75L24.6187 75L20.8347 75L0.546507 75L0 75L0 66.5257L0 34.8694L0 34.3217L0 30.831L0 24.9133L0 21.8644L0 11.6435L0 5.33161L0 3.53467L0 -0Z"/>
	<path fill="#96EBFC" transform="matrix(3.84667 0 0 3.84 0 0.000244141)" d="M19.8192 13.5679C20.7503 13.3709 21.0781 13.3419 22.0032 13.625C22.0652 13.7821 22.2299 14.0676 22.1636 14.2174C21.7664 15.1144 19.5558 16.8764 18.6178 17.2106L18.2856 17.3097C18.0512 15.6205 19.4279 15.0269 19.8192 13.5679Z"/>
	<path fill="#6FD7FC" transform="matrix(3.84667 0 0 3.84 0 0.000244141)" d="M23.9386 15.2157L24.2296 15.625C24.0908 16.2725 23.9942 17.0955 23.7196 17.6887C23.0469 19.142 22.0605 19.4331 20.6487 19.9449C20.5812 19.8361 20.4062 19.6251 20.4169 19.5047C20.5631 17.8544 22.7473 16.2096 23.9386 15.2157Z"/>
	<path fill="#6FD7FC" transform="matrix(3.84667 0 0 3.84 0 0.000244141)" d="M22.5454 34.1604C23.5856 34.3774 24.4179 34.585 25.303 35.1925C25.6437 35.9027 25.7718 36.1421 25.504 36.9272C25.3129 37.4875 24.8409 37.8658 24.3233 38.1196C23.8431 38.3551 23.2266 38.3599 22.7278 38.1788C22.2895 38.0196 21.769 37.4545 21.5744 37.0265C21.3566 36.5474 21.2149 36.013 21.0756 35.5059L22.5454 34.1604Z"/>
	<path fill="#5ED2FA" transform="matrix(3.84667 0 0 3.84 0 0.000244141)" d="M6.3775 38.875C6.99966 38.6176 7.71153 38.6482 8.375 38.6275C8.5235 40.7406 8.00994 43.6246 7.3125 45.6262C7.25836 44.9812 7.34286 44.6139 7.64289 44.0415C7.39827 43.6641 7.12138 43.0451 6.7616 42.7702C5.45411 41.7711 4.05443 41.9291 3.1275 40.375L3.3775 39.625C4.49165 38.7174 4.96667 38.8768 6.3775 38.875Z"/>
	<path fill="#96EBFC" transform="matrix(3.84667 0 0 3.84 0 0.000244141)" d="M30.3149 11.4694L30.861 10.4406C32.1248 8.35807 36.2632 7.47071 38.4965 6.91896C38.5025 8.08916 38.3816 9.87885 39.0934 10.862L39.2647 11.266C39.653 11.3851 40.1846 11.6328 40.5815 11.4926L42.3333 11.4931C42.4398 11.7196 42.7176 12.1459 42.7479 12.375C42.8527 13.1697 42.2154 15.1211 42.5942 15.7298L43.5642 20.2626L43.8841 22.1129L43.8929 23.154C43.2585 23.4995 42.5187 23.1932 41.869 23.0158C39.027 22.9482 35.9392 20.3959 34.032 18.4124C32.0419 16.3428 30.255 14.4743 30.3149 11.4694Z"/>
	<path fill="#6FD7FC" transform="matrix(3.84667 0 0 3.84 0 0.000244141)" d="M30.3149 11.4694L30.861 10.4406C32.1248 8.35807 36.2632 7.47071 38.4965 6.91896C38.5025 8.08916 38.3816 9.87885 39.0934 10.862C38.5487 10.9513 37.8237 10.9792 37.3165 11.1695C36.7148 11.3808 36.0015 11.6422 35.362 11.6498C33.9723 11.6663 32.7797 10.9921 31.7293 12.125C31.7663 12.9468 32.3854 13.6027 32.9644 14.1339C33.4892 14.6154 34.2546 15.1844 34.9071 15.4388C35.9003 15.8261 36.3107 16.7807 37.125 17.3725C37.7588 17.8331 39.1149 18.3823 39.4524 19.1501C39.5333 19.3341 39.6095 19.532 39.6506 19.7287C39.7889 20.3909 40.637 20.4106 40.4482 21.2284L40.0533 21.5347L40.1275 22.125L40.875 22.3725L41.125 22.1225L42.1275 22.125L42.625 22.8725L42.9988 22.7488L43.125 22.3725L43.8841 22.1129L43.8929 23.154C43.2585 23.4995 42.5187 23.1932 41.869 23.0158C39.027 22.9482 35.9392 20.3959 34.032 18.4124C32.0419 16.3428 30.255 14.4743 30.3149 11.4694Z"/>
	<path fill="#33AEE0" transform="matrix(3.84667 0 0 3.84 0 0.000244141)" d="M23.1094 0L38.4795 0C38.6546 0.929277 39.1523 2.20259 38.625 2.9804L37.5532 3.125L37.5055 3.625C38.1705 4.26671 38.8458 5.06228 38.8668 6.03597C38.8737 6.35656 38.8054 6.60807 38.9697 6.90119L38.4965 6.91896C36.2632 7.47071 32.1248 8.35807 30.861 10.4406L30.3149 11.4694C29.4292 11.7397 28.3698 11.9511 27.6665 12.5846L27.625 12.6225C26.2921 12.6043 25.081 12.4217 23.9323 11.6521C22.6414 10.7873 23.2496 8.02342 22.9613 6.57984C23.068 4.62093 22.7064 2.56142 22.8102 0.535223L23.1094 0Z"/>
	<path fill="#33AEE0" transform="matrix(3.84667 0 0 3.84 0 0.000244141)" d="M9.70146 26.5879L9.74004 26.5859C10.8083 26.5198 11.0091 25.6766 11.75 25.4541C12.8709 25.1175 13.0598 25.4966 14.1275 24.625L14.2513 24.2512C14.5191 24.2317 14.7424 24.1996 14.9928 24.0988C15.6369 23.8396 16.4295 23.7663 17.0828 24.0442C18.6621 24.7159 21.3429 24.9617 22.3725 26.25C22.1667 27.4968 21.4359 27.7866 20.8356 28.7505C20.3463 29.5363 20.8692 31.0644 21.125 31.8775C21.7222 32.4266 22.5695 32.9136 22.6005 33.778C22.6051 33.9084 22.5788 34.0352 22.5454 34.1604L21.0756 35.5059C20.8884 35.6696 20.5839 35.6653 20.375 35.8725C19.7522 36.49 18.977 37.5378 18.4511 38.2577C17.967 38.9204 18.2476 39.343 17.4988 39.9025C16.6143 39.7192 15.722 39.1244 14.7815 38.875C14.2967 37.9993 14.8485 38.3489 15.125 37.6275C15.1904 37.4569 15.1269 36.9556 15.1275 36.75C14.9208 36.7264 14.7524 36.8053 14.5625 36.8762L14.6618 36.2163L14.375 36.3725C13.973 37.6308 9.88913 39.1164 8.59189 39.8616L8.80477 35.3804C8.67621 34.7395 8.59742 33.9636 8.24237 33.4075C7.626 32.4421 2.67273 34.3296 1.68418 34.478C1.1565 34.5572 0.520828 34.4279 0 34.3217L0 30.831C0.871525 30.2053 1.61162 29.5385 2.35571 28.7664C4.77068 28.5225 7.34987 27.2729 9.70146 26.5879Z"/>
	<path fill="#5ED2FA" transform="matrix(3.84667 0 0 3.84 0 0.000244141)" d="M9.74212 29.5568C10.5604 29.4874 12.4646 29.2597 13.097 29.7665C13.2284 29.8718 13.3686 30.3985 13.375 30.5634C13.4146 31.5878 12.8548 31.9916 12.2248 32.6688C11.2787 33.0389 10.2521 33.0782 9.25 33.1699L8.95535 32.875C8.95393 31.5579 8.89818 30.6454 9.74212 29.5568Z"/>
	<path fill="#5ED2FA" transform="matrix(3.84667 0 0 3.84 0 0.000244141)" d="M20.8347 75C20.8338 74.9393 20.8347 74.9047 20.8729 74.8551C20.9685 74.7314 21.0737 74.5937 21.1104 74.4382C21.2509 73.842 21.204 72.8726 20.875 72.3775C20.8493 71.7509 20.7676 71.0992 21.0995 70.5375L21.1225 70.5L20.6469 70.1135C20.9735 69.7682 20.8834 69.1005 21.0391 68.604C21.4261 67.3699 22.3516 64.6124 23.1015 63.6515C23.19 63.5381 23.1225 61.7521 23.1225 61.5C23.4069 61.7703 23.6973 62.24 24.0541 62.3819L24.1077 62.4023L23.9653 63.7153C23.1342 64.1579 21.5688 67.5351 21.5288 68.5288C21.5036 69.156 21.6055 69.1527 21.274 69.774C21.6669 70.2125 21.4739 70.59 21.875 71.1275L23.3225 71.0418L23.4295 71.5568C23.1832 71.6006 22.8891 71.6636 22.6801 71.8051C22.0493 72.2319 21.8597 72.6521 21.75 73.375C22.1338 73.5986 22.4404 73.684 22.875 73.75L23.0625 73.3125L23.75 73.25C24.0914 72.7978 23.7095 72.4738 23.8775 72.125C23.9643 71.9448 24.5176 71.6229 24.6875 71.4375C24.907 71.198 25.2925 70.3065 25.4558 69.9652C25.6241 69.6133 25.959 69.3752 26.25 69.125C26.2581 68.9208 26.2845 68.6853 26.3775 68.5C26.5484 68.1594 27.3964 67.2389 27.75 67.1275C27.8054 67.11 28.696 67.4735 28.875 67.5C29.2227 67.5514 29.7329 67.3621 30.0625 67.2512L30.125 67C29.995 66.5319 29.9109 65.7827 29.6711 65.3793C28.8994 64.0816 27.3943 63.38 26.4135 62.3327C26.1232 62.0227 25.8631 61.3805 25.6287 61C26.2339 59.6065 25.7881 58.6825 26.3725 57.25C26.3198 57.1344 26.256 57.0265 26.1729 56.9298C25.4366 56.0725 22.7074 55.3733 21.6238 55.3125C22.2967 55.377 22.5783 55.1183 23.25 55.25L23.6262 54.5625C23.1675 54.2196 22.6048 54.248 22.0566 54.2226L22.125 54.1225L27.625 54.0872C27.7137 54.0324 28.3601 53.6639 28.3725 53.625C28.5929 52.9346 28.3061 52.6157 28.8535 51.8995C28.9972 51.7115 28.7966 50.7866 28.8725 50.5C29.0771 49.7278 29.3172 48.8321 29.3535 47.9773C29.4001 46.8766 29.214 40.3331 28.7797 39.625C28.5768 39.2941 28.1451 38.9338 27.875 38.6397C28.1101 37.578 29.2228 36.6815 29.8052 35.6985C31.069 33.5654 31.4634 30.9705 33.907 29.7871C34.624 29.44 36.0586 29.0736 36.5963 28.6462C36.784 28.4969 37.9317 28.6672 38.25 28.6077C38.4397 28.5722 38.8142 28.2858 38.9988 28.1805C39.7641 28.192 39.8864 28.4281 40.4323 28.9256C39.1763 29.0844 38.6279 29.042 37.8007 30.1065C36.8616 31.3149 36.7617 32.7698 35.6913 33.7827C34.3712 34.724 33.6243 35.3548 33.247 36.9828C33.3153 38.69 33.2526 39.5684 34.528 40.7876C35.0221 41.4857 35.5552 42.0935 35.4487 43C34.2031 44.299 32.6441 43.4453 31.907 45.4142C32.4008 46.3385 33.049 46.6582 33.625 47.4285C34.622 48.7617 34.4481 51.6882 34.617 53.359L33.3754 55.256C32.9605 55.523 32.1908 55.8764 31.875 56.2216C31.588 56.5353 31.5673 57.3538 31.3775 57.75C31.2342 58.0491 30.9235 58.2987 30.8541 58.6275C30.4604 60.4931 30.4899 61.9863 30.375 63.8775C30.3501 64.2865 30.147 64.6807 30.1447 65.0768L30.6776 66.3273L30.9527 67.581L31.41 67.625C31.8555 67.0651 32.0415 66.2011 32.625 65.931C33.4873 66.6479 33.5767 66.5463 34.6562 66.446C34.853 66.4277 35.035 66.4002 35.2256 66.3471L37.7888 69.0466C39.454 70.7801 39.9054 72.6142 39.9322 75L36.018 75L29.7669 75L24.6187 75L20.8347 75Z"/>
	<path fill="#6FD7FC" transform="matrix(3.84667 0 0 3.84 0 0.000244141)" d="M30.1447 65.0768C28.7666 64.102 27.3983 62.3816 26.2443 61.126C27.2793 58.7116 28.9373 57.7476 30.4873 55.816C30.9225 55.2737 31.0557 54.5228 31.586 54.0405C31.773 53.8703 31.8248 53.7447 31.8775 53.5L31.4599 53.1009C31.4439 52.536 31.0778 52.2496 30.9259 51.7471C30.3394 49.8068 30.9589 47.1462 31.907 45.4142C32.4008 46.3385 33.049 46.6582 33.625 47.4285C34.622 48.7617 34.4481 51.6882 34.617 53.359L33.3754 55.256C32.9605 55.523 32.1908 55.8764 31.875 56.2216C31.588 56.5353 31.5673 57.3538 31.3775 57.75C31.2342 58.0491 30.9235 58.2987 30.8541 58.6275C30.4604 60.4931 30.4899 61.9863 30.375 63.8775C30.3501 64.2865 30.147 64.6807 30.1447 65.0768Z"/>
	<path fill="#6FD7FC" transform="matrix(3.84667 0 0 3.84 0 0.000244141)" d="M30.6776 66.3273L30.9527 67.581L31.41 67.625C31.8555 67.0651 32.0415 66.2011 32.625 65.931C33.4873 66.6479 33.5767 66.5463 34.6562 66.446C34.853 66.4277 35.035 66.4002 35.2256 66.3471L37.7888 69.0466C39.454 70.7801 39.9054 72.6142 39.9322 75L36.018 75L29.7669 75L24.6187 75C24.5693 74.3981 24.5099 73.7589 24.5691 73.157C24.7004 71.8204 26.7286 68.9343 27.9192 68.2354C28.6624 67.7991 29.8494 68.2164 30.5322 67.6458C30.5983 67.5905 30.6615 66.4996 30.6776 66.3273Z"/>
	<path fill="#5ED2FA" transform="matrix(3.84667 0 0 3.84 0 0.000244141)" d="M33.9846 71.1533C34.7265 71.0722 34.8108 70.6658 35.375 70.3104C36.1117 69.8463 37.0108 69.5489 37.7888 69.0466C39.454 70.7801 39.9054 72.6142 39.9322 75L36.018 75L29.7669 75C29.8267 74.3235 29.9539 73.981 30.125 73.3775C30.307 72.7355 30.039 72.0501 30.3154 71.3233C30.6624 70.4105 30.4134 70.2403 31.125 69.4323C32.0695 69.5483 33.2093 70.5969 33.9846 71.1533Z"/>
	<path fill="#5ED2FA" transform="matrix(3.84667 0 0 3.84 0 0.000244141)" d="M0 -0L13.8399 0L15.4441 0L23.1094 0L22.8102 0.535223C22.7064 2.56142 23.068 4.62093 22.9613 6.57984C20.4491 7.26567 17.0303 9.13736 15.0815 10.9042C15.5416 11.04 15.7277 11.173 16 11.5682C17.0113 11.3846 18.4794 10.73 19.391 11.3877C19.4883 11.4579 19.572 11.5349 19.6509 11.625C19.6423 12.0827 19.7508 12.8715 19.4406 13.1883L19.8192 13.5679C19.4279 15.0269 18.0512 15.6205 18.2856 17.3097L17.9988 16.0012L17.7512 16.0012C17.3206 16.4818 17.2151 17.056 16.8614 17.5653L13.1275 22.625C12.7998 23.0825 12.5975 23.7844 12.2512 24.2512C11.7084 24.9832 10.3968 25.8574 9.70146 26.5879C7.34987 27.2729 4.77068 28.5225 2.35571 28.7664C1.61162 29.5385 0.871525 30.2053 0 30.831L0 24.9133L0 21.8644L0 11.6435L0 5.33161L0 3.53467L0 -0Z"/>
	<path fill="#68D0F7" transform="matrix(3.84667 0 0 3.84 0 0.000244141)" d="M15.4441 0L23.1094 0L22.8102 0.535223C20.4733 1.1333 17.7244 0.60123 15.4441 0Z"/>
	<path fill="#96EBFC" transform="matrix(3.84667 0 0 3.84 0 0.000244141)" d="M0 24.9133C1.14325 25.6284 1.84381 26.1679 2.17546 27.5643L2.35571 28.7664C1.61162 29.5385 0.871525 30.2053 0 30.831L0 24.9133Z"/>
	<path fill="#B4F2FA" transform="matrix(3.84667 0 0 3.84 0 0.000244141)" d="M0 -0L13.8399 0L12.5451 0.628151L12.625 1.17963C10.0503 3.00727 6.73169 2.69641 3.90144 3.80765C2.45904 4.072 1.34572 4.85153 0 5.33161L0 3.53467L0 -0Z"/>
	<path fill="#68D0F7" transform="matrix(3.84667 0 0 3.84 0 0.000244141)" d="M0 3.53467C1.80434 2.82435 3.39208 2.58552 5.26767 2.16122L12.5451 0.628151L12.625 1.17963C10.0503 3.00727 6.73169 2.69641 3.90144 3.80765C2.45904 4.072 1.34572 4.85153 0 5.33161L0 3.53467Z"/>
	<path fill="#6FD7FC" transform="matrix(3.84667 0 0 3.84 0 0.000244141)" d="M3.90144 3.80765C4.83223 3.69141 6.49705 3.33038 7.2905 3.9311C7.50026 4.0899 7.44324 4.52222 7.56288 4.74837C7.90609 5.3971 8.50388 5.29392 8.60966 6.2837C8.65997 6.75452 8.48063 7.05806 8.68648 7.5542C9.46221 9.42388 12.3709 10.7154 13.0324 12.8381L10.2085 15.5748L10.0469 15.4809L9.68105 16.2599L9.61597 17.5C9.35831 17.8742 8.97494 18.0495 8.54705 18.1695C7.47047 18.4713 6.37762 18.2736 5.44206 17.8098C5.08586 17.6332 4.70178 17.6836 4.375 17.5531C4.26889 17.5107 3.8887 16.9536 3.78556 16.8234C2.33305 14.9893 2.18211 12.8469 0 11.6435L0 5.33161C1.34572 4.85153 2.45904 4.072 3.90144 3.80765Z"/>
	<path fill="#96EBFC" transform="matrix(3.84667 0 0 3.84 0 0.000244141)" d="M9.68105 16.2599C9.2813 16.7756 8.91633 17.2268 8.375 17.6059C7.65615 17.559 6.80302 17.4014 6.26438 16.8859C5.74094 16.385 5.89598 15.6914 5.8775 15C6.01474 14.8 6.16019 14.5916 6.33152 14.4194C7.10324 13.6437 8.11723 13.8775 9.125 13.8775C9.73289 14.4854 9.87123 14.6188 10.0469 15.4809L9.68105 16.2599Z"/>
	<path fill="#96EBFC" transform="matrix(3.84667 0 0 3.84 0 0.000244141)" d="M104.624 0L114.621 0L126.105 0L133.91 0L146.542 0C146.767 0.595563 146.96 1.25919 147.377 1.75C147.428 2.82402 148.088 4.87409 147.375 5.75C146.737 5.72792 145.551 5.50823 145 5.75C144.434 5.59106 143.996 5.37773 143.501 5.0625L143.444 5.10353C143.131 5.31755 142.773 5.26782 142.413 5.24952C144.337 5.99736 146.088 6.15257 148.134 6.22545C148.133 7.14786 148.246 8.16737 147.695 8.95947C147.834 9.74094 148.009 10.7381 147.88 11.5285C148.753 11.9182 149.72 12.5422 150.579 12.8625C150.863 12.9681 151.266 12.8329 151.5 12.9207C151.852 13.053 152.391 13.985 152.664 14.2765L152.715 14.5301C154.274 15.0465 155.702 15.9754 157.134 16.7656C156.393 20.1191 156.104 23.8029 154.589 26.9265C154.04 28.0589 153.125 29.1493 152.375 30.1601C151.961 30.3897 151.745 30.4055 151.286 30.3301C150.683 31.414 151.159 33.5359 151.285 34.8135C151.304 35.0083 151.461 35.7533 151.41 35.875C151.377 35.956 150.968 36.225 150.875 36.2981C150.066 35.9704 149.601 35.673 148.735 35.875C148.661 37.0588 149.673 37.3643 150.049 38.3822C150.057 38.4036 150.023 38.5488 150.018 38.5763C149.552 41.4375 148.243 43.5231 147.46 46.2055C147.289 46.7931 147.792 47.3857 147.535 47.936C146.403 50.3562 144.494 51.8298 143.989 54.6468C143.941 54.9114 143.608 56.4979 143.701 56.6539C144.057 57.2528 143.886 58.6021 143.873 59.3168C142.735 60.6376 140.764 63.5857 139.199 64.2392C138.866 65.5445 137.022 66.6773 136.239 67.8126C135.423 68.9939 135.027 70.2851 134.391 71.5451C133.755 72.8041 132.878 73.9526 131.941 75L119.231 75L119.155 74.7279L117.639 74.2438C115.39 72.8656 113.736 70.9599 112.137 68.8895C111.422 67.9636 110.676 66.7022 109.813 65.9313C109.358 65.5257 108.531 65.3238 107.968 64.9937C104.98 63.2429 102.269 61.6809 100.055 58.9282C97.4916 55.7403 96.5152 51.716 93.4135 48.7688C91.9303 47.3594 89.5979 47.2314 87.9955 45.9881C86.3339 44.6989 86.7955 44.2492 86.5227 42.375C86.4451 41.8413 86.1571 41.6023 85.75 41.3099L84.6682 41.7583C85.4016 41.0878 85.6691 40.1875 85.8642 39.25L85.3725 38.5C86.0647 37.6348 86.4349 38.1264 87.1927 37.5157C87.4002 37.4439 87.6091 37.3526 87.7935 37.2328C88.4821 36.7855 90.0631 35.5746 90.2371 34.7875C91.2203 34.5247 92.0961 34.1238 92.9082 33.5137C93.7989 33.5023 94.7218 33.1481 95.4796 32.6935C96.7759 31.916 97.2005 31.1408 97.5435 29.7344C97.9231 28.1777 98.0024 24.7023 97.1315 23.2747L97.2776 23.136C98.1566 22.281 98.2184 21.029 98.6531 19.912C99.1914 18.5293 100.219 16.9494 100.522 15.5412C100.718 14.6281 100.56 13.5044 100.575 12.5644C100.594 11.4743 101.011 10.6871 101.379 9.69204C101.647 8.96713 101.666 8.16915 101.955 7.44971C102.429 6.27103 103.658 5.51719 104.434 4.55299C104.906 3.96756 105.089 3.3102 105.651 2.7649L106.267 2.93603L106.493 2.61473C105.595 1.72912 105.178 1.13017 104.624 0Z"/>
	<path fill="#68D0F7" transform="matrix(3.84667 0 0 3.84 0 0.000244141)" d="M114.621 0L126.105 0C126.057 0.450007 126.008 0.677504 125.669 1.00843C125.261 1.62084 124.794 2.31847 124.226 2.79177C124.101 3.78129 123.151 4.7083 122.532 5.46258L122.464 5.42397L122.622 5L122.29 4.70374C121.316 5.01112 120.657 3.6917 119.875 3.3775C118.801 2.946 116.987 3.926 115.893 3.51486C114.88 3.13419 115.479 0.972721 114.668 0.0525513L114.621 0Z"/>
	<path fill="#D6F7FC" transform="matrix(3.84667 0 0 3.84 0 0.000244141)" d="M139.12 44.5406C139.661 44.7833 139.673 44.8917 139.916 45.4181C139.814 46.0984 139.838 46.8009 139.57 47.4448C138.615 47.9021 138.053 48.537 137.377 49.3341C138.134 50.864 138.883 52.2279 139.875 53.6225L139.928 53.5791C140.173 53.3895 142.265 52.927 142.592 52.9813L143.25 53.1225C143.584 52.6245 143.53 52.2063 143.562 51.6238C143.711 53.7598 143.695 56.5639 142.214 58.2679L140.377 60.625L140.4 60.655C140.729 61.1002 140.652 61.6035 140.625 62.1275L139.199 64.2392C138.866 65.5445 137.022 66.6773 136.239 67.8126C135.423 68.9939 135.027 70.2851 134.391 71.5451C133.755 72.8041 132.878 73.9526 131.941 75L119.231 75L119.155 74.7279L117.639 74.2438L120.54 74.4209C120.864 72.9734 121.054 71.0848 121.7 69.75C122.107 68.9103 123.288 67.8443 123.493 66.9236C123.68 66.0801 123.424 64.8305 123.504 63.9163C123.683 61.8894 125.281 61.1211 126.646 59.97C126.985 59.8742 127.367 59.7623 127.651 59.5492C128.766 58.7113 128.906 57.658 129.072 56.375L129.212 56.4224L129.254 57.5L129.5 57.6275L130.25 57.125L130.255 57.0357C130.474 58.1173 130.227 59.5847 130.508 60.5229C130.532 60.6059 131.94 61.4844 132.116 61.6011C132.202 61.6585 132.259 61.6958 132.363 61.7164C134.445 59.8672 132.183 58.4627 131.979 56.5C131.955 56.2675 132.134 55.7298 132.184 55.4818C134.751 55.229 136.998 54.6393 139.503 54.0429L136.85 49.0952C137.62 48.1181 138.794 47.5712 139.434 46.4792C139.616 45.6972 139.432 45.2418 139.12 44.5406Z"/>
	<path fill="#B4F2FA" transform="matrix(3.84667 0 0 3.84 0 0.000244141)" d="M126.646 59.97C126.985 59.8742 127.367 59.7623 127.651 59.5492C128.766 58.7113 128.906 57.658 129.072 56.375L129.212 56.4224L129.254 57.5L129.5 57.6275L130.25 57.125L130.255 57.0357C130.474 58.1173 130.227 59.5847 130.508 60.5229C130.532 60.6059 131.94 61.4844 132.116 61.6011C132.202 61.6585 132.259 61.6958 132.363 61.7164C132.486 63.2412 130.567 65.5581 129.666 66.7493C128.812 64.4916 128.164 62.5481 127.932 60.125L126.646 59.97Z"/>
	<path fill="#B4F2FA" transform="matrix(3.84667 0 0 3.84 0 0.000244141)" d="M126.105 0L133.91 0L146.542 0C146.767 0.595563 146.96 1.25919 147.377 1.75C147.428 2.82402 148.088 4.87409 147.375 5.75C146.737 5.72792 145.551 5.50823 145 5.75C144.434 5.59106 143.996 5.37773 143.501 5.0625L143.444 5.10353C143.131 5.31755 142.773 5.26782 142.413 5.24952C144.337 5.99736 146.088 6.15257 148.134 6.22545C148.133 7.14786 148.246 8.16737 147.695 8.95947C147.834 9.74094 148.009 10.7381 147.88 11.5285C148.753 11.9182 149.72 12.5422 150.579 12.8625C150.863 12.9681 151.266 12.8329 151.5 12.9207C151.852 13.053 152.391 13.985 152.664 14.2765L152.715 14.5301C154.274 15.0465 155.702 15.9754 157.134 16.7656C156.393 20.1191 156.104 23.8029 154.589 26.9265C154.04 28.0589 153.125 29.1493 152.375 30.1601C151.961 30.3897 151.745 30.4055 151.286 30.3301C150.683 31.414 151.159 33.5359 151.285 34.8135C151.304 35.0083 151.461 35.7533 151.41 35.875C151.377 35.956 150.968 36.225 150.875 36.2981C150.066 35.9704 149.601 35.673 148.735 35.875C148.661 37.0588 149.673 37.3643 150.049 38.3822C150.057 38.4036 150.023 38.5488 150.018 38.5763C149.552 41.4375 148.243 43.5231 147.46 46.2055C147.289 46.7931 147.792 47.3857 147.535 47.936C146.403 50.3562 144.494 51.8298 143.989 54.6468C143.941 54.9114 143.608 56.4979 143.701 56.6539C144.057 57.2528 143.886 58.6021 143.873 59.3168C142.735 60.6376 140.764 63.5857 139.199 64.2392L140.625 62.1275C140.652 61.6035 140.729 61.1002 140.4 60.655L140.377 60.625L142.214 58.2679C143.695 56.5639 143.711 53.7598 143.562 51.6238C143.53 52.2063 143.584 52.6245 143.25 53.1225L142.592 52.9813C142.265 52.927 140.173 53.3895 139.928 53.5791L139.875 53.6225C138.883 52.2279 138.134 50.864 137.377 49.3341C138.053 48.537 138.615 47.9021 139.57 47.4448C139.838 46.8009 139.814 46.0984 139.916 45.4181C139.673 44.8917 139.661 44.7833 139.12 44.5406C138.361 43.4893 137.838 42.0866 137.184 40.934L133.379 34.8089C132.232 32.7875 131.387 30.6163 130.06 28.6912C128.511 26.4438 126.668 24.4182 125.064 22.2152C124.538 21.4922 124.267 20.5375 123.689 19.8734C122.528 18.5384 120.403 17.7207 119.683 16.051C119.144 14.7997 119.784 13.9465 119.945 12.7555C120.03 12.1189 119.944 11.2128 120.188 10.6315C120.341 10.2654 120.537 10.2508 120.875 10.1067C121.577 10.3555 121.688 10.4528 122.148 11.0396L122.366 11.1881C124.612 12.8755 122.481 14.0664 122.782 15.9987L123.375 16.2249C125.258 16.1113 126.726 15.2544 128.308 14.2985C128.375 14.1179 128.579 13.7224 128.543 13.5491C128.082 11.3296 126.548 10.6517 124.804 9.50181C123.796 8.87575 123.079 8.4649 121.869 8.4981C121.105 7.53316 122.501 6.57456 122.532 5.46258C123.151 4.7083 124.101 3.78129 124.226 2.79177C124.794 2.31847 125.261 1.62084 125.669 1.00843C126.008 0.677504 126.057 0.450007 126.105 0Z"/>
	<path fill="#96EBFC" transform="matrix(3.84667 0 0 3.84 0 0.000244141)" d="M126.105 0L133.91 0C134.707 1.07201 135.71 1.79693 136.625 2.75C137.323 2.82709 137.951 3.00293 138.635 3.11483L138.92 3.86079L138.333 4.40785L138.301 4.37496C137.966 4.03238 137.724 3.94529 137.256 3.87344C136.855 4.03698 136.741 4.02321 136.562 4.4375L136.624 4.94545L136.01 5.06346C135.546 4.53122 135.525 4.14937 135.517 3.44549L135.024 2.88066L134.375 2.8725L133.875 2.1225C133.012 2.35154 132.023 2.72912 131.125 2.6225C130.799 2.40524 130.239 2.46103 130.098 2.35151C129.899 2.19608 129.758 2.11515 129.509 2.06852C129.089 1.99022 128.789 1.59981 128.376 1.44284C127.647 1.16623 126.488 1.07859 125.669 1.00843C126.008 0.677504 126.057 0.450007 126.105 0Z"/>
	<path fill="#96EBFC" transform="matrix(3.84667 0 0 3.84 0 0.000244141)" d="M138.171 24.6245C139.316 24.3524 140.643 24.3809 141.804 24.5282C143.186 24.7038 144.092 25.1418 144.949 26.2512C145.077 27.8565 143.229 27.6423 142.495 28.5419C142.344 28.7273 142.469 31.4106 142.123 32.1268L142.289 32.661L141.983 33.2083C141.317 33.5758 140.737 33.7343 140 33.8705C138.861 33.1067 139.607 30.4408 139.482 29.3243C139.372 28.3376 138.173 26.9919 137.897 25.9245C137.735 25.2994 137.86 25.1503 138.171 24.6245Z"/>
	<path fill="#96EBFC" transform="matrix(3.84667 0 0 3.84 0 0.000244141)" d="M146.451 9.96005C145.711 9.00099 145.381 9.42088 144.515 8.99054C142.997 8.2362 140.711 9.35146 139.3 8.52793L138.932 8.29453L138.875 8.25C138.577 8.55493 138.272 8.74582 137.856 8.83946C136.822 9.07276 136.526 9.18844 135.626 8.62375L135.625 8.25L136.5 8.75C137.673 7.99262 138.624 6.81507 139.251 5.5625C139.611 5.33265 140.026 5.27308 140.438 5.1875L140.312 4.8125C141.31 4.76913 141.592 4.63085 142.413 5.24952C144.337 5.99736 146.088 6.15257 148.134 6.22545C148.133 7.14786 148.246 8.16737 147.695 8.95947C147.834 9.74094 148.009 10.7381 147.88 11.5285C148.753 11.9182 149.72 12.5422 150.579 12.8625C150.863 12.9681 151.266 12.8329 151.5 12.9207C151.852 13.053 152.391 13.985 152.664 14.2765L152.715 14.5301L152.472 14.6391C152.07 15.4985 152.747 16.0937 152.742 17.0102C152.735 18.4939 152.462 20.0972 152.34 21.5878C152.858 20.9848 153.423 20.2638 153.812 19.5745C154.155 18.9654 154.227 18.2994 154.875 17.911C155.475 18.3224 155.323 19.0885 155.563 19.7792C155.382 20.9767 154.883 21.865 154.278 22.9002C153.025 23.8537 150.95 23.3248 149.5 23.3048C149.189 23.1063 148.87 22.8875 148.626 22.6082C147.891 21.7662 147.834 20.5312 147.713 19.4703C147.429 16.9684 147.249 14.5987 147.401 12.0805C146.789 11.8163 145.811 11.9434 145.131 11.9351L139.125 11.8725L139.125 11.5L146.875 11.5C146.877 10.786 146.792 10.5919 146.451 9.96005Z"/>
</svg>
