<?xml version="1.0" encoding="utf-8" ?>
<svg xmlns="http://www.w3.org/2000/svg" xmlns:xlink="http://www.w3.org/1999/xlink" width="300" height="75">
	<path fill="#020202" d="M0 -0L77.6426 0L118.374 0L126.387 0L137.986 0L170.898 0L205.91 0L208.675 0L242.954 0L252.893 0L289.884 0L299.812 0L299.812 0.463623C300.246 2.56099 300.019 5.04125 300.025 7.19397L300.03 19.8719C300.027 21.352 300.416 24.9533 299.83 26.1794L299.66 26.4994C300.244 27.7335 300.028 29.4646 300.035 30.8094L300.04 39.4508C300.035 40.4466 300.283 42.5039 299.938 43.3964L299.799 43.6877L299.598 44.0079L299.828 44.4278C300.155 45.0931 300.341 73.2624 299.946 74.3602C299.905 74.4754 299.845 74.5812 299.781 74.6848L299.563 75L260.424 75L214.456 75L183.892 75L150.916 75L125.695 75L91.4347 75L88.4399 75L77.9761 75L18.3623 75L4.29785 75L-0 75L0 66.6566L0 39.4796L0 35.0613L0 4.30091L0 -0Z"/>
	<path fill="#252525" d="M0 39.4796C1.7472 39.5331 3.04666 39.5773 4.6523 40.3778C7.46435 43.9109 8.81718 48.8981 10.5305 53.0503L14.9144 63.9273C16.2987 67.3795 18.0683 71.266 18.3623 75L4.29785 75L-0 75L0 66.6566L0 39.4796Z"/>
	<path fill="#020202" d="M0 66.6566C1.79294 69.2434 2.56517 72.482 4.29785 75L-0 75L0 66.6566Z"/>
	<path fill="#252525" d="M0 4.30091L41.9813 19.2416C46.054 20.7071 50.3496 21.8233 54.3034 23.5564C54.8912 23.814 55.3794 24.1577 55.8171 24.625C55.7432 24.7056 55.5868 24.9276 55.5 24.9709C55.1928 25.1239 54.3483 25.1142 53.9765 25.1768L49.8057 25.96L12.635 32.9073C8.51159 33.614 4.33892 34.8669 0.150115 35.0558L0 35.0613L0 4.30091Z"/>
	<path fill="#181818" d="M18.1756 43.8778L7.27656 38.231C8.86015 38.3659 10.9909 39.2909 12.4736 39.0718C15.8965 38.5662 19.3005 36.954 22.5756 35.8483L38.2111 30.8117C42.8982 29.2875 47.3497 27.7153 52.1674 26.6358C53.0322 26.4421 54.2557 25.9823 55.1201 26.0422C55.9021 26.0964 56.2949 26.6367 56.7674 27.1949C57.6025 28.1813 58.244 29.4611 58.9461 30.5531L63.4134 37.385L80.8199 63.5531C83.2084 67.043 85.5086 70.6989 88.1169 74.0255C88.4473 74.4469 88.4726 74.4633 88.4399 75L77.9761 75C77.5962 74.2455 76.2659 73.8881 75.4804 73.5247C73.8861 72.787 72.1543 71.9474 70.7295 70.9194L18.1756 43.8778Z"/>
	<path fill="#252525" d="M18.1756 43.8778L18.875 43.1275L18.9288 43.1678C20.0049 43.9584 21.3997 44.2783 22.5938 44.8521L30.1789 48.6848C31.6556 49.4025 32.9805 50.3352 34.4298 51.0961C35.9327 51.885 37.5538 52.3714 39.0642 53.1246L45.3187 56.5597L54.8495 61.2244C55.7247 61.6425 56.802 61.9434 57.625 62.3843C59.6049 63.4449 61.455 64.6325 63.5 65.6275L67.2573 67.6466C67.7555 67.8868 68.5187 67.86 68.9233 68.2993C69.5797 69.0117 69.9978 70.2119 70.7295 70.9194L18.1756 43.8778Z"/>
	<path fill="#323132" d="M77.6426 0L118.374 0L126.387 0L137.986 0L170.898 0L170.875 0.646642C169.48 1.51301 168.241 2.59111 166.873 3.49875C161.542 7.03423 156.609 10.4417 151.913 14.8358C150.982 15.7062 149.377 16.8862 149.02 18.125L148.163 18.5678C149.636 20.1832 163.626 40.881 163.969 42.2488C162.947 43.0245 161.25 42.8938 160.001 43.0613C155.622 43.6484 151.122 44.1857 146.71 44.3821C144.142 44.4964 141.444 44.3023 138.903 44.5615C138.303 43.5633 133.74 42.2301 132.501 41.7632L76.9756 19.1697L77.1146 11.4648L77.5178 4.10126C77.6082 2.79568 77.955 1.27979 77.6426 0Z"/>
	<path fill="#3D3D3D" d="M123.647 16.7492C125.348 16.4811 127.388 16.808 129.138 16.805L142.49 16.252C143.735 16.1404 144.934 16.245 146.177 16.0352C146.851 16.4822 147.98 17.6077 148.141 18.4182L148.163 18.5678C149.636 20.1832 163.626 40.881 163.969 42.2488C162.947 43.0245 161.25 42.8938 160.001 43.0613C155.622 43.6484 151.122 44.1857 146.71 44.3821C144.142 44.4964 141.444 44.3023 138.903 44.5615C138.303 43.5633 133.74 42.2301 132.501 41.7632C132.722 41.5985 133.405 40.969 133.625 40.9278C134.515 40.7609 135.584 41.7865 136.668 41.4465C136.718 41.0544 136.736 40.6038 136.636 40.2175C136.21 38.587 134.969 36.768 134.14 35.2882L128.21 25.0332C127.087 23.0838 126.11 20.738 124.816 18.9292C124.622 18.6574 124.267 18.4452 123.981 18.2797C124.158 17.7147 123.88 17.2553 123.647 16.7492Z"/>
	<path fill="#020202" d="M77.6426 0L118.374 0L126.387 0L137.986 0L170.898 0L170.875 0.646642C169.48 1.51301 168.241 2.59111 166.873 3.49875C161.542 7.03423 156.609 10.4417 151.913 14.8358C150.982 15.7062 149.377 16.8862 149.02 18.125L148.163 18.5678L148.141 18.4182C147.98 17.6077 146.851 16.4822 146.177 16.0352C144.934 16.245 143.735 16.1404 142.49 16.252L129.138 16.805C127.388 16.808 125.348 16.4811 123.647 16.7492C123.88 17.2553 124.158 17.7147 123.981 18.2797L124.28 19.125C123.737 19.3978 121.905 19.2783 121.173 19.2903C119.964 19.3101 119.098 18.7824 118.25 17.9531C117.856 17.9944 117.292 17.7387 116.978 17.5112C116.525 17.183 116.45 16.6419 116.377 16.125L116.867 15.914L116.377 15.25C116.094 15.473 116.139 15.7147 115.892 15.9883L115.473 15.3599C115.48 15.1495 115.514 15.0006 115.601 14.8079L115.627 14.75L113.785 11.9141C114.019 11.7355 114.033 11.6541 114.127 11.375C113.65 10.3007 113.028 11.2188 112.266 11.1565C111.993 11.1342 111.466 10.8422 111.192 10.7347L89.3292 16.2596C87.3915 17.7337 83.068 18.5244 80.6105 18.7721C79.3578 18.8984 78.1932 18.7557 76.9756 19.1697L77.1146 11.4648L77.5178 4.10126C77.6082 2.79568 77.955 1.27979 77.6426 0Z"/>
	<path fill="#323132" d="M126.387 0L137.986 0L137.75 0.449777C133.878 0.977938 129.778 2.316 125.901 2.48618C126.028 1.62764 126.602 0.887599 126.387 0Z"/>
	<path fill="#252525" d="M111.192 10.7347C112.397 10.4019 113.405 10.2446 114.655 10.3067C114.812 10.3232 114.96 10.357 115.113 10.395C115.726 10.5472 116.197 11.2265 116.604 11.6771C117.624 12.8073 118.528 13.886 120.109 14.1789C122.279 14.581 125.002 14.1231 127.195 13.953L140.887 12.8398C141.504 12.7939 143.531 12.4305 143.964 12.6312C144.297 12.7857 145.763 14.7684 146.011 15.1904C146.153 15.4321 146.177 15.7595 146.177 16.0352C144.934 16.245 143.735 16.1404 142.49 16.252L129.138 16.805C127.388 16.808 125.348 16.4811 123.647 16.7492C123.88 17.2553 124.158 17.7147 123.981 18.2797L124.28 19.125C123.737 19.3978 121.905 19.2783 121.173 19.2903C119.964 19.3101 119.098 18.7824 118.25 17.9531C117.856 17.9944 117.292 17.7387 116.978 17.5112C116.525 17.183 116.45 16.6419 116.377 16.125L116.867 15.914L116.377 15.25C116.094 15.473 116.139 15.7147 115.892 15.9883L115.473 15.3599C115.48 15.1495 115.514 15.0006 115.601 14.8079L115.627 14.75L113.785 11.9141C114.019 11.7355 114.033 11.6541 114.127 11.375C113.65 10.3007 113.028 11.2188 112.266 11.1565C111.993 11.1342 111.466 10.8422 111.192 10.7347Z"/>
	<path fill="#181818" d="M77.6426 0L118.374 0C118.459 0.247052 118.707 0.755662 118.72 1C118.78 2.06921 117.465 3.33193 117.694 4.47028L116.973 4.97068C114.523 6.42916 111.795 7.32227 109.15 8.34353L97.3131 12.8421C94.844 13.7547 91.3016 14.5092 89.3292 16.2596C87.3915 17.7337 83.068 18.5244 80.6105 18.7721C79.3578 18.8984 78.1932 18.7557 76.9756 19.1697L77.1146 11.4648L77.5178 4.10126C77.6082 2.79568 77.955 1.27979 77.6426 0Z"/>
	<path fill="#323132" d="M170.898 0L205.91 0L208.675 0L242.954 0L252.893 0L289.884 0L299.812 0L299.812 0.463623C300.246 2.56099 300.019 5.04125 300.025 7.19397L300.03 19.8719C300.027 21.352 300.416 24.9533 299.83 26.1794L299.66 26.4994C300.244 27.7335 300.028 29.4646 300.035 30.8094L300.04 39.4508C300.035 40.4466 300.283 42.5039 299.938 43.3964L299.799 43.6877L299.598 44.0079L299.828 44.4278C300.155 45.0931 300.341 73.2624 299.946 74.3602C299.905 74.4754 299.845 74.5812 299.781 74.6848L299.563 75L260.424 75L214.456 75L183.892 75L150.916 75L151.125 74.3012L144.808 58.6761L140.853 48.5416C140.35 47.3037 139.869 45.4737 138.903 44.5615C141.444 44.3023 144.142 44.4964 146.71 44.3821C151.122 44.1857 155.622 43.6484 160.001 43.0613C161.25 42.8938 162.947 43.0245 163.969 42.2488C163.626 40.881 149.636 20.1832 148.163 18.5678L149.02 18.125C149.377 16.8862 150.982 15.7062 151.913 14.8358C156.609 10.4417 161.542 7.03423 166.873 3.49875C168.241 2.59111 169.48 1.51301 170.875 0.646642L170.898 0Z"/>
	<path fill="#252525" d="M190.901 34.7013C191.66 34.6587 193.049 34.4335 193.693 34.8405L194.063 35.0796C194.501 35.4086 195.69 34.9218 196.373 35.375L203.322 35.3796C203.608 35.3715 203.804 35.1518 204.155 35.1466C205.761 35.1227 207.543 35.3169 209.125 35.1275C210.433 34.9709 211.792 35.0215 213.125 34.8775C213.324 34.856 213.453 34.6613 213.661 34.6512C214.776 34.5969 217.554 34.925 218.375 34.3775C219.854 34.3775 221.654 34.1861 223 34.625C223.779 34.8791 224.782 34.388 225.62 34.769C226.191 35.0283 226.025 34.7311 226.375 34.6275C227.531 34.2858 228.925 34.8019 230.125 34.3775C230.468 34.2561 231.433 34.384 231.832 34.3841C233.183 34.3843 234.642 34.3624 235.976 34.1628C236.829 34.0353 237.715 33.6755 238.524 33.3815L238.75 33.625C237.957 33.826 237.326 34.2094 236.5 34.25L236.507 34.5596C235.596 35.2732 234.108 35.3522 233 35.4558L228.109 35.9446C226.836 36.0593 225.409 36.3634 224.151 36.3754L216.991 36.3786C216.122 36.3802 214.922 36.2169 214.131 36.5423L213.812 36.6875C214.324 36.7037 214.931 36.7926 215.375 36.5L223.5 36.75L223.46 37.0702L218.978 37.3762C217.479 37.4049 215.8 37.2159 214.326 37.4047C213.418 37.521 212.49 37.808 211.562 37.9375C212.899 37.9717 214.094 37.624 215.375 37.5C217.427 37.3014 219.678 37.4889 221.75 37.5L221.71 37.8202C220.073 37.825 218.544 38.0548 216.949 38.1332C215.509 38.2039 214.062 38.1262 212.624 38.2456C210.328 38.436 208.243 38.6386 205.923 38.6319C205.484 38.6306 204.506 38.752 204.123 38.625C202.948 38.2356 201.73 38.6784 200.623 38.375C199.848 38.1627 199.031 38.063 198.25 37.8775C197.763 37.7617 197.11 37.9908 196.623 37.875C193.384 37.1052 190.086 37.2245 186.608 37.1039L185.125 35.6275C184.455 35.6952 183.792 35.7756 183.118 35.7187C185.496 35.0742 188.443 34.9195 190.901 34.7013Z"/>
	<path fill="#181818" d="M190.901 34.7013L209.89 32.4511L227.705 30.2067C231.169 29.8584 234.601 29.3938 238.087 29.8439C241.211 30.2473 244.162 31.3459 247.199 32.0888C248.349 32.3703 249.566 32.4392 250.736 32.715C252.503 33.1316 254.214 33.8009 256 34.2071C259.814 35.0746 263.765 35.6501 267.647 36.1357C269.262 36.3376 282.53 37.3703 282.618 37.4338L282.658 37.4654C281.43 37.7185 279.951 37.3649 278.67 37.527C269.373 38.7039 259.999 40.009 250.625 39.9397L250.625 39.75C251.155 39.7582 252.67 39.9091 253.094 39.6628C253.505 39.4242 254.968 39.2147 255.5 39.125C254.456 39.135 253.645 39.4098 252.642 39.5566C251.064 39.7875 248.369 39.8686 246.812 39.5625C247.5 39.5494 247.896 39.3453 248.5 39.25C249.065 39.1609 249.679 39.2857 250.237 39.18C250.519 39.1267 250.737 38.8815 251.022 38.82C251.721 38.669 252.036 38.827 252.688 38.3738L247.164 39.2479C246.538 39.3685 246.334 39.415 245.812 39.0625C247.731 38.9842 249.357 38.1611 251.188 37.6875L250.938 37.3738L250.538 37.5557C249.637 37.9479 248.261 38.5014 247.345 38.1422C247.826 37.8026 248.038 37.7951 248.625 37.75L248.627 37.375L246.506 37.8614L246.062 37.5625L247.375 37.25L247.377 36.875C246.286 37.2154 244.383 38.0492 243.345 37.6422C244.276 37.1448 245.518 37.1785 246.375 36.5C245.757 36.176 244.961 36.9819 244.095 36.6422L245.938 35.6875L245.808 35.4108C244.808 35.8627 242.855 36.9465 241.845 36.642C242.515 36.1264 244.102 35.5491 244.938 35.1875L244.774 34.8815C243.849 35.3153 242.051 36.4302 241.095 36.142L242.938 35.1875L243.024 34.8815L239.751 36.1026L239.312 35.8125C240.431 35.5037 241.419 35.2004 242.375 34.5L242.138 34.3759L239.751 35.3526L239.312 35.0625C239.924 34.7911 240.557 34.3679 241.216 34.2555C241.279 34.2447 241.394 34.0593 241.439 34C240.087 33.6964 238.31 35.7123 236.842 35.1437C237.655 34.4848 239.358 34.1759 240.375 33.75L240.377 33.375C239.017 33.8256 237.973 34.4161 236.507 34.5596L236.5 34.25C237.326 34.2094 237.957 33.826 238.75 33.625L238.524 33.3815C237.715 33.6755 236.829 34.0353 235.976 34.1628C234.642 34.3624 233.183 34.3843 231.832 34.3841C231.433 34.384 230.468 34.2561 230.125 34.3775C228.925 34.8019 227.531 34.2858 226.375 34.6275C226.025 34.7311 226.191 35.0283 225.62 34.769C224.782 34.388 223.779 34.8791 223 34.625C221.654 34.1861 219.854 34.3775 218.375 34.3775C217.554 34.925 214.776 34.5969 213.661 34.6512C213.453 34.6613 213.324 34.856 213.125 34.8775C211.792 35.0215 210.433 34.9709 209.125 35.1275C207.543 35.3169 205.761 35.1227 204.155 35.1466C203.804 35.1518 203.608 35.3715 203.322 35.3796L196.373 35.375C195.69 34.9218 194.501 35.4086 194.063 35.0796L193.693 34.8405C193.049 34.4335 191.66 34.6587 190.901 34.7013Z"/>
	<path fill="#020202" d="M183.892 75C183.903 74.7921 183.96 74.4914 183.929 74.2924C183.878 73.9668 183.171 73.0577 182.972 72.7325L179.498 67.2163L169.665 51.4637C167.904 48.6412 165.784 45.8124 164.368 42.8118C167.914 45.351 171.785 47.4586 175.451 49.8241L209.187 71.2711C210.051 71.8285 214.335 74.3699 214.456 75L183.892 75Z"/>
	<path fill="#020202" d="M260.424 75C261.199 74.3184 261.764 73.2759 262.338 72.4226L265.544 67.6686L274.941 54.0681C277.973 49.5754 280.893 45.0178 284.313 40.8044C289.406 41.2769 294.637 42.7802 299.598 44.0079L299.828 44.4278C300.155 45.0931 300.341 73.2624 299.946 74.3602C299.905 74.4754 299.845 74.5812 299.781 74.6848L299.563 75L260.424 75Z"/>
	<path fill="#020202" d="M170.898 0L205.91 0L208.675 0L242.954 0L252.893 0L289.884 0L299.812 0L299.812 0.463623C300.246 2.56099 300.019 5.04125 300.025 7.19397L300.03 19.8719C300.027 21.352 300.416 24.9533 299.83 26.1794L299.66 26.4994L290.259 34.0204C289.088 34.9637 287.463 36.7112 285.997 37.0219L285.75 37.439L282.658 37.4654L282.618 37.4338C282.53 37.3703 269.262 36.3376 267.647 36.1357C263.765 35.6501 259.814 35.0746 256 34.2071C254.214 33.8009 252.503 33.1316 250.736 32.715C249.566 32.4392 248.349 32.3703 247.199 32.0888C244.162 31.3459 241.211 30.2473 238.087 29.8439C234.601 29.3938 231.169 29.8584 227.705 30.2067L209.89 32.4511L190.901 34.7013C188.443 34.9195 185.496 35.0742 183.118 35.7187C179.494 36.0481 176.03 36.5293 172.715 38.1271C171.206 38.8544 169.305 40.1555 167.678 40.5047C166.805 41.5152 165.256 42.0256 163.969 42.2488C163.626 40.881 149.636 20.1832 148.163 18.5678L149.02 18.125C149.377 16.8862 150.982 15.7062 151.913 14.8358C156.609 10.4417 161.542 7.03423 166.873 3.49875C168.241 2.59111 169.48 1.51301 170.875 0.646642L170.898 0Z"/>
	<path fill="#181818" d="M208.675 0L242.954 0C242.942 0.170364 242.816 0.386585 242.75 0.546382L221.21 10.9764L201.439 19.8875L189.64 25.2981C187.374 26.3512 184.991 27.7507 182.597 28.4286C182.691 27.9176 184.512 26.7657 184.965 26.3726C186.508 25.0359 188.027 23.5284 189.43 22.0421C190.926 20.4576 192.203 18.6375 193.654 17.0021L205.488 4.08408C206.07 3.46388 208.399 1.42415 208.625 0.708582C208.683 0.52502 208.661 0.20071 208.675 0Z"/>
	<path fill="#181818" d="M252.893 0L289.884 0L299.812 0L299.812 0.463623C300.246 2.56099 300.019 5.04125 300.025 7.19397L300.03 19.8719C300.027 21.352 300.416 24.9533 299.83 26.1794L299.66 26.4994L290.259 34.0204C289.088 34.9637 287.463 36.7112 285.997 37.0219L285.999 36.9903C286.017 36.5953 285.833 36.2986 285.596 36.0005C282.669 32.3255 279.09 28.9075 275.944 25.3959L262.601 10.9347L252.893 0Z"/>
	<path fill="#020202" d="M289.884 0L299.812 0L299.812 0.463623L299.25 0.200634L298.552 0.625C295.814 0.581973 292.512 0.776306 289.884 0Z"/>
	<path fill="#181818" d="M170.898 0L205.91 0C205.7 1.39324 202.826 3.98158 201.814 5.13093L181.758 26.5017C181.211 27.0599 180.824 27.7215 180.252 28.2992L180.026 28.125C180.044 27.9025 180.043 26.9783 180.146 26.8463C180.54 26.337 180.742 25.2728 180.873 24.625L180.625 24.3775C180.403 24.9688 180.171 25.9027 179.774 26.3788C179.61 26.5755 179.589 26.9874 179.439 27.25L179.688 27.6875C179.472 27.8289 179.212 27.9527 179.139 28.216L179.5 28.5C179.303 28.6931 179.021 28.625 178.75 28.625L179.223 24.2696L179.069 24.125C178.716 25.5731 178.515 27.1022 178.347 28.5827C178.306 28.9457 178.389 29.8254 178.272 30.125C178.144 30.4514 177.403 31.1022 177.145 31.3866C174.624 34.1632 171.411 36.1767 168.768 38.8064C168.265 39.3078 167.501 39.796 167.678 40.5047C166.805 41.5152 165.256 42.0256 163.969 42.2488C163.626 40.881 149.636 20.1832 148.163 18.5678L149.02 18.125C149.377 16.8862 150.982 15.7062 151.913 14.8358C156.609 10.4417 161.542 7.03423 166.873 3.49875C168.241 2.59111 169.48 1.51301 170.875 0.646642L170.898 0Z"/>
</svg>
